<?xml version="1.0" encoding="UTF-8"?>
<svg width="160px" height="42px" viewBox="0 0 160 42" version="1.1" xmlns="http://www.w3.org/2000/svg" xmlns:xlink="http://www.w3.org/1999/xlink">
    <!-- Generator: Sketch 55.1 (78136) - https://sketchapp.com -->
    <title>Group 23</title>
    <desc>Created with Sketch.</desc>
    <g id="Page-1" stroke="none" stroke-width="1" fill="none" fill-rule="evenodd">
        <g id="Desktop-HD-Copy-11" transform="translate(-355.000000, -2408.000000)">
            <g id="Group-4" transform="translate(0.000000, 495.000000)">
                <g id="Group-7" transform="translate(0.000000, 1410.000000)">
                    <g id="Group-10" transform="translate(354.000000, 503.000000)">
                        <g id="Group-17">
                            <g id="Group-23" transform="translate(0.956569, 0.296000)">
                                <path d="M6.888,17.04 L8.95283847e-13,0.384 L1.68,0.384 L6.96,13.512 L12.264,0.384 L13.872,0.384 L6.984,17.04 L6.888,17.04 Z M16.7242201,16.704 L16.7242201,0.384 L18.3082201,0.384 L18.3082201,16.704 L16.7242201,16.704 Z M21.1604403,13.608 L22.4804403,12.912 C23.3444403,14.544 24.8324403,15.48 26.7524403,15.48 C28.9844403,15.48 30.3044403,14.376 30.3044403,12.672 C30.3044403,10.872 29.2004403,10.08 27.2324403,9.168 L25.9124403,8.544 C23.5604403,7.44 22.1204403,6.36 22.1204403,4.08 C22.1204403,1.752 23.9444403,0.192 26.3924403,0.192 C28.5044403,0.192 29.8964403,0.96 30.9044403,2.592 L29.7044403,3.36 C28.9844403,2.136 27.9284403,1.56 26.4164403,1.56 C24.7604403,1.56 23.6564403,2.592 23.6564403,4.032 C23.6564403,5.592 24.5444403,6.192 26.5364403,7.128 L27.8324403,7.752 C30.4484403,8.976 31.8644403,10.176 31.8644403,12.624 C31.8644403,15.312 29.8244403,16.896 26.7764403,16.896 C24.1124403,16.896 22.2164403,15.6 21.1604403,13.608 Z M40.6686604,16.896 C37.3806604,16.896 34.9086604,14.952 34.9086604,11.16 L34.9086604,0.384 L36.4686604,0.384 L36.4686604,11.04 C36.4686604,13.992 38.1246604,15.48 40.6686604,15.48 C43.2366604,15.48 44.8686604,13.992 44.8686604,11.04 L44.8686604,0.384 L46.4286604,0.384 L46.4286604,11.16 C46.4286604,14.952 43.9566604,16.896 40.6686604,16.896 Z M60.5608805,16.704 L58.9288805,12.672 L51.5368805,12.672 L49.9288805,16.704 L48.3448805,16.704 L55.2088805,4.36983782e-13 L55.3288805,4.36983782e-13 L62.2168805,16.704 L60.5608805,16.704 Z M55.2328805,3.528 L52.1128805,11.28 L58.3528805,11.28 L55.2328805,3.528 Z M64.9731006,16.704 L64.9731006,0.384 L66.5331006,0.384 L66.5331006,15.312 L74.1171006,15.312 L74.1171006,16.704 L64.9731006,16.704 Z M82.2455409,16.704 L82.2455409,0.384 L86.3255409,0.384 C91.7255409,0.384 94.9415409,3.72 94.9415409,8.544 C94.9415409,13.368 91.7495409,16.704 86.3255409,16.704 L82.2455409,16.704 Z M83.8055409,15.288 L86.1815409,15.288 C91.0055409,15.288 93.3095409,12.504 93.3095409,8.544 C93.3095409,4.584 91.0055409,1.8 86.1815409,1.8 L83.8055409,1.8 L83.8055409,15.288 Z M98.057761,16.704 L98.057761,0.384 L107.897761,0.384 L107.897761,1.776 L99.617761,1.776 L99.617761,7.8 L107.009761,7.8 L107.009761,9.168 L99.617761,9.168 L99.617761,15.312 L108.233761,15.312 L108.233761,16.704 L98.057761,16.704 Z M110.125981,13.608 L111.445981,12.912 C112.309981,14.544 113.797981,15.48 115.717981,15.48 C117.949981,15.48 119.269981,14.376 119.269981,12.672 C119.269981,10.872 118.165981,10.08 116.197981,9.168 L114.877981,8.544 C112.525981,7.44 111.085981,6.36 111.085981,4.08 C111.085981,1.752 112.909981,0.192 115.357981,0.192 C117.469981,0.192 118.861981,0.96 119.869981,2.592 L118.669981,3.36 C117.949981,2.136 116.893981,1.56 115.381981,1.56 C113.725981,1.56 112.621981,2.592 112.621981,4.032 C112.621981,5.592 113.509981,6.192 115.501981,7.128 L116.797981,7.752 C119.413981,8.976 120.829981,10.176 120.829981,12.624 C120.829981,15.312 118.789981,16.896 115.741981,16.896 C113.077981,16.896 111.181981,15.6 110.125981,13.608 Z M124.090201,16.704 L124.090201,0.384 L125.674201,0.384 L125.674201,16.704 L124.090201,16.704 Z M137.334421,16.896 C132.534421,16.896 128.814421,13.392 128.814421,8.544 C128.814421,3.72 132.510421,0.192 137.094421,0.192 C139.950421,0.192 141.846421,1.2 143.238421,2.736 L142.134421,3.768 C141.006421,2.52 139.566421,1.608 137.046421,1.608 C133.254421,1.608 130.446421,4.584 130.446421,8.544 C130.446421,12.504 133.302421,15.48 137.334421,15.48 C139.734421,15.48 141.246421,14.784 142.302421,13.896 L142.302421,10.152 L137.382421,10.152 L137.382421,8.76 L143.790421,8.76 L143.790421,14.616 C142.302421,15.936 140.406421,16.896 137.334421,16.896 Z M159.626642,17.04 L148.634642,3.864 L148.634642,16.704 L147.170642,16.704 L147.170642,0.048 L147.314642,0.048 L158.306642,13.224 L158.306642,0.384 L159.770642,0.384 L159.770642,17.04 L159.626642,17.04 Z" id="VISUALDESIGN" fill="#FF3B30" fill-rule="nonzero"></path>
                                <text id="a-brief-display" font-family="Sentinel-MediumItalic, Sentinel" font-size="16" font-style="italic" font-weight="500" letter-spacing="-0.0345199138" fill="#8E8E93">
                                    <tspan x="31.5863302" y="38.704">a brief display</tspan>
                                </text>
                            </g>
                        </g>
                    </g>
                </g>
            </g>
        </g>
    </g>
</svg>