<?xml version="1.0" encoding="UTF-8"?>
<svg width="218px" height="42px" viewBox="0 0 218 42" version="1.1" xmlns="http://www.w3.org/2000/svg" xmlns:xlink="http://www.w3.org/1999/xlink">
    <!-- Generator: Sketch 55.2 (78181) - https://sketchapp.com -->
    <title>Group 17</title>
    <desc>Created with Sketch.</desc>
    <g id="Page-1" stroke="none" stroke-width="1" fill="none" fill-rule="evenodd">
        <g id="Desktop-HD-Copy-11" transform="translate(-326.000000, -2408.000000)" fill-rule="nonzero">
            <g id="Group-10" transform="translate(326.000000, 2408.000000)">
                <g id="Group-17" transform="translate(0.761579, 0.296000)">
                    <path d="M34.5829906,17.04 L27.6949906,0.384 L29.3749906,0.384 L34.6549906,13.512 L39.9589906,0.384 L41.5669906,0.384 L34.6789906,17.04 L34.5829906,17.04 Z M44.4192107,16.704 L44.4192107,0.384 L46.0032107,0.384 L46.0032107,16.704 L44.4192107,16.704 Z M48.8554308,13.608 L50.1754308,12.912 C51.0394308,14.544 52.5274308,15.48 54.4474308,15.48 C56.6794308,15.48 57.9994308,14.376 57.9994308,12.672 C57.9994308,10.872 56.8954308,10.08 54.9274308,9.168 L53.6074308,8.544 C51.2554308,7.44 49.8154308,6.36 49.8154308,4.08 C49.8154308,1.752 51.6394308,0.192 54.0874308,0.192 C56.1994308,0.192 57.5914308,0.96 58.5994308,2.592 L57.3994308,3.36 C56.6794308,2.136 55.6234308,1.56 54.1114308,1.56 C52.4554308,1.56 51.3514308,2.592 51.3514308,4.032 C51.3514308,5.592 52.2394308,6.192 54.2314308,7.128 L55.5274308,7.752 C58.1434308,8.976 59.5594308,10.176 59.5594308,12.624 C59.5594308,15.312 57.5194308,16.896 54.4714308,16.896 C51.8074308,16.896 49.9114308,15.6 48.8554308,13.608 Z M68.363651,16.896 C65.075651,16.896 62.603651,14.952 62.603651,11.16 L62.603651,0.384 L64.163651,0.384 L64.163651,11.04 C64.163651,13.992 65.819651,15.48 68.363651,15.48 C70.931651,15.48 72.563651,13.992 72.563651,11.04 L72.563651,0.384 L74.123651,0.384 L74.123651,11.16 C74.123651,14.952 71.651651,16.896 68.363651,16.896 Z M88.2558711,16.704 L86.6238711,12.672 L79.2318711,12.672 L77.6238711,16.704 L76.0398711,16.704 L82.9038711,4.36983782e-13 L83.0238711,4.36983782e-13 L89.9118711,16.704 L88.2558711,16.704 Z M82.9278711,3.528 L79.8078711,11.28 L86.0478711,11.28 L82.9278711,3.528 Z M92.6680912,16.704 L92.6680912,0.384 L94.2280912,0.384 L94.2280912,15.312 L101.812091,15.312 L101.812091,16.704 L92.6680912,16.704 Z M109.940531,16.704 L109.940531,0.384 L114.020531,0.384 C119.420531,0.384 122.636531,3.72 122.636531,8.544 C122.636531,13.368 119.444531,16.704 114.020531,16.704 L109.940531,16.704 Z M111.500531,15.288 L113.876531,15.288 C118.700531,15.288 121.004531,12.504 121.004531,8.544 C121.004531,4.584 118.700531,1.8 113.876531,1.8 L111.500531,1.8 L111.500531,15.288 Z M125.752752,16.704 L125.752752,0.384 L135.592752,0.384 L135.592752,1.776 L127.312752,1.776 L127.312752,7.8 L134.704752,7.8 L134.704752,9.168 L127.312752,9.168 L127.312752,15.312 L135.928752,15.312 L135.928752,16.704 L125.752752,16.704 Z M137.820972,13.608 L139.140972,12.912 C140.004972,14.544 141.492972,15.48 143.412972,15.48 C145.644972,15.48 146.964972,14.376 146.964972,12.672 C146.964972,10.872 145.860972,10.08 143.892972,9.168 L142.572972,8.544 C140.220972,7.44 138.780972,6.36 138.780972,4.08 C138.780972,1.752 140.604972,0.192 143.052972,0.192 C145.164972,0.192 146.556972,0.96 147.564972,2.592 L146.364972,3.36 C145.644972,2.136 144.588972,1.56 143.076972,1.56 C141.420972,1.56 140.316972,2.592 140.316972,4.032 C140.316972,5.592 141.204972,6.192 143.196972,7.128 L144.492972,7.752 C147.108972,8.976 148.524972,10.176 148.524972,12.624 C148.524972,15.312 146.484972,16.896 143.436972,16.896 C140.772972,16.896 138.876972,15.6 137.820972,13.608 Z M151.785192,16.704 L151.785192,0.384 L153.369192,0.384 L153.369192,16.704 L151.785192,16.704 Z M165.029412,16.896 C160.229412,16.896 156.509412,13.392 156.509412,8.544 C156.509412,3.72 160.205412,0.192 164.789412,0.192 C167.645412,0.192 169.541412,1.2 170.933412,2.736 L169.829412,3.768 C168.701412,2.52 167.261412,1.608 164.741412,1.608 C160.949412,1.608 158.141412,4.584 158.141412,8.544 C158.141412,12.504 160.997412,15.48 165.029412,15.48 C167.429412,15.48 168.941412,14.784 169.997412,13.896 L169.997412,10.152 L165.077412,10.152 L165.077412,8.76 L171.485412,8.76 L171.485412,14.616 C169.997412,15.936 168.101412,16.896 165.029412,16.896 Z M187.321632,17.04 L176.329632,3.864 L176.329632,16.704 L174.865632,16.704 L174.865632,0.048 L175.009632,0.048 L186.001632,13.224 L186.001632,0.384 L187.465632,0.384 L187.465632,17.04 L187.321632,17.04 Z" id="VISUALDESIGN" fill="#FF3B30"></path>
                    <path d="M5.952,38.848 C5.216,38.848 4.656,38.352 4.656,37.408 C4.656,35.696 5.712,34.224 5.712,33.024 C5.712,32.608 5.552,32.464 5.296,32.464 C4.496,32.464 2.848,34 1.584,38.704 L1.37845291e-12,38.704 L2.624,28.864 L1.168,28.864 L1.472,27.712 L4.4,27.712 L2.4,34.592 L2.496,34.64 C3.504,32.48 4.784,31.248 5.872,31.248 C6.72,31.248 7.216,32 7.216,32.944 C7.216,34.24 6.08,36.24 6.08,37.344 C6.08,37.568 6.16,37.696 6.368,37.696 C6.736,37.696 7.088,37.056 7.456,36.048 L8.16,36.256 C7.52,38.256 6.688,38.848 5.952,38.848 Z M12.8934801,31.248 C14.6534801,31.248 15.7254801,32.528 15.7254801,34.32 C15.7254801,36.752 13.8694801,38.848 11.7254801,38.848 C9.96548009,38.848 8.89348009,37.568 8.89348009,35.776 C8.89348009,33.344 10.7494801,31.248 12.8934801,31.248 Z M14.1734801,33.648 C14.1734801,32.592 13.7254801,32.048 12.8934801,32.048 C11.3574801,32.048 10.4454801,34.736 10.4454801,36.448 C10.4454801,37.504 10.8934801,38.048 11.7254801,38.048 C13.2614801,38.048 14.1734801,35.36 14.1734801,33.648 Z M18.9069602,31.264 C19.7229602,31.264 20.1069602,31.792 20.1069602,32.624 C20.1069602,34.176 18.9069602,35.936 18.9069602,36.912 C18.9069602,37.456 19.2749602,37.696 19.8669602,37.696 C21.3709602,37.696 22.5229602,35.216 22.6989602,33.264 C22.6029602,33.312 22.4269602,33.344 22.3309602,33.344 C21.8349602,33.344 21.4829602,33.008 21.4829602,32.432 C21.4829602,31.808 21.9469602,31.216 22.5389602,31.216 C23.2269602,31.216 23.6269602,31.664 23.6269602,32.768 C23.6269602,34.912 21.9469602,38.896 19.3549602,38.896 C18.1869602,38.896 17.4189602,38.192 17.4189602,37.184 C17.4189602,35.92 18.6669602,33.616 18.6669602,32.8 C18.6669602,32.544 18.6029602,32.416 18.4109602,32.416 C17.9949602,32.416 17.7389602,32.832 17.1629602,33.984 L16.4589602,33.664 C17.1149602,32.16 17.8829602,31.264 18.9069602,31.264 Z M30.7604403,32.8 C30.7604403,34.192 29.2404403,35.472 25.9284403,35.744 C25.9124403,35.936 25.8964403,36.112 25.8964403,36.272 C25.8964403,37.52 26.5524403,37.952 27.3684403,37.952 C28.2004403,37.952 29.0324403,37.312 29.6564403,36.352 L30.3124403,36.736 C29.5284403,37.968 28.5684403,38.848 26.9044403,38.848 C25.4324403,38.848 24.3444403,37.712 24.3444403,36 C24.3444403,33.568 26.5204403,31.248 28.8564403,31.248 C30.0884403,31.248 30.7604403,31.888 30.7604403,32.8 Z M28.6004403,32.048 C27.4004403,32.048 26.4724403,33.616 26.0884403,35.024 C28.4404403,34.72 29.3844403,33.904 29.3844403,32.832 C29.3844403,32.416 29.1284403,32.048 28.6004403,32.048 Z M32.0699203,38.704 L33.4619203,33.472 C33.7019203,32.56 33.6859203,32.256 33.3339203,32.256 C32.9179203,32.256 32.4859203,32.992 32.0059203,33.984 L31.3019203,33.664 C31.9579203,32.16 32.7099203,31.28 33.6859203,31.28 C34.3579203,31.28 34.7899203,31.76 34.7899203,32.752 C34.7899203,33.232 34.6779203,33.84 34.4219203,34.528 L34.5659203,34.576 C35.4939203,32.464 36.2779203,31.248 37.3179203,31.248 C37.9099203,31.248 38.3579203,31.648 38.3579203,32.32 C38.3579203,33.04 37.8939203,33.648 37.3339203,33.648 C36.8379203,33.648 36.5019203,33.328 36.5019203,32.736 C35.9579203,32.976 34.7259203,34.752 33.6539203,38.704 L32.0699203,38.704 Z M46.8808805,32.432 L44.6568805,32.432 L43.6488805,36.08 C43.5208805,36.56 43.4408805,36.928 43.4408805,37.136 C43.4408805,37.536 43.6168805,37.696 43.9688805,37.696 C44.5608805,37.696 45.0568805,36.896 45.5368805,35.92 L46.2568805,36.128 C45.4088805,38.448 44.2088805,38.848 43.5528805,38.848 C42.5448805,38.848 41.9368805,38.352 41.9368805,37.408 C41.9368805,36.88 42.1448805,36.16 42.2568805,35.712 L43.1528805,32.432 L41.6968805,32.432 L41.9208805,31.568 L43.3768805,31.568 L43.9048805,29.632 L45.4568805,29.472 L44.8808805,31.568 L47.1208805,31.568 L46.8808805,32.432 Z M51.2463606,31.248 C53.0063606,31.248 54.0783606,32.528 54.0783606,34.32 C54.0783606,36.752 52.2223606,38.848 50.0783606,38.848 C48.3183606,38.848 47.2463606,37.568 47.2463606,35.776 C47.2463606,33.344 49.1023606,31.248 51.2463606,31.248 Z M52.5263606,33.648 C52.5263606,32.592 52.0783606,32.048 51.2463606,32.048 C49.7103606,32.048 48.7983606,34.736 48.7983606,36.448 C48.7983606,37.504 49.2463606,38.048 50.0783606,38.048 C51.6143606,38.048 52.5263606,35.36 52.5263606,33.648 Z M58.2173208,38.704 L59.6093208,33.472 C59.8493208,32.56 59.8333208,32.256 59.4813208,32.256 C59.0653208,32.256 58.6333208,32.992 58.1533208,33.984 L57.4493208,33.664 C58.1053208,32.16 58.8573208,31.28 59.8333208,31.28 C60.5053208,31.28 60.9373208,31.76 60.9373208,32.752 C60.9373208,33.232 60.8253208,33.84 60.5693208,34.528 L60.7133208,34.576 C61.6413208,32.464 62.4253208,31.248 63.4653208,31.248 C64.0573208,31.248 64.5053208,31.648 64.5053208,32.32 C64.5053208,33.04 64.0413208,33.648 63.4813208,33.648 C62.9853208,33.648 62.6493208,33.328 62.6493208,32.736 C62.1053208,32.976 60.8733208,34.752 59.8013208,38.704 L58.2173208,38.704 Z M70.9508009,32.8 C70.9508009,34.192 69.4308009,35.472 66.1188009,35.744 C66.1028009,35.936 66.0868009,36.112 66.0868009,36.272 C66.0868009,37.52 66.7428009,37.952 67.5588009,37.952 C68.3908009,37.952 69.2228009,37.312 69.8468009,36.352 L70.5028009,36.736 C69.7188009,37.968 68.7588009,38.848 67.0948009,38.848 C65.6228009,38.848 64.5348009,37.712 64.5348009,36 C64.5348009,33.568 66.7108009,31.248 69.0468009,31.248 C70.2788009,31.248 70.9508009,31.888 70.9508009,32.8 Z M68.7908009,32.048 C67.5908009,32.048 66.6628009,33.616 66.2788009,35.024 C68.6308009,34.72 69.5748009,33.904 69.5748009,32.832 C69.5748009,32.416 69.3188009,32.048 68.7908009,32.048 Z M78.8842809,31.344 L77.5562809,36.256 C77.4282809,36.72 77.3642809,37.04 77.3642809,37.28 C77.3642809,37.536 77.4762809,37.696 77.7482809,37.696 C78.1482809,37.696 78.5002809,37.056 78.8682809,36.048 L79.5722809,36.256 C78.9322809,38.256 78.1162809,38.848 77.2842809,38.848 C76.6122809,38.848 76.1002809,38.4 76.1002809,37.536 C76.1002809,37.424 76.1002809,37.36 76.1162809,37.2 L76.0042809,37.152 C75.4122809,38.256 74.4842809,38.848 73.6362809,38.848 C72.4042809,38.848 71.6202809,37.776 71.6202809,36.368 C71.6202809,34.752 72.2602809,33.408 73.1082809,32.56 C73.8922809,31.776 74.8362809,31.248 75.7162809,31.248 C76.5642809,31.248 77.0122809,31.824 77.1082809,32.496 L77.4122809,31.344 L78.8842809,31.344 Z M74.2282809,37.712 C75.6042809,37.712 76.6922809,34.768 76.6922809,33.472 C76.6922809,32.624 76.3562809,32.144 75.7482809,32.144 C74.1802809,32.144 73.1882809,34.88 73.1882809,36.128 C73.1882809,37.12 73.5242809,37.712 74.2282809,37.712 Z M82.849761,37.712 C84.225761,37.712 85.329761,34.832 85.329761,33.344 C85.329761,32.56 85.073761,32.144 84.401761,32.144 C82.753761,32.144 81.809761,34.88 81.809761,36.128 C81.809761,37.12 82.145761,37.712 82.849761,37.712 Z M87.489761,36.048 L88.193761,36.256 C87.553761,38.256 86.737761,38.848 85.905761,38.848 C85.233761,38.848 84.721761,38.384 84.721761,37.52 C84.721761,37.44 84.721761,37.376 84.737761,37.2 L84.625761,37.152 C84.033761,38.256 83.105761,38.848 82.257761,38.848 C81.025761,38.848 80.241761,37.776 80.241761,36.368 C80.241761,34.752 80.881761,33.408 81.729761,32.56 C82.513761,31.776 83.457761,31.248 84.337761,31.248 C85.169761,31.248 85.585761,31.68 85.761761,32.368 L86.705761,28.864 L85.249761,28.864 L85.553761,27.712 L88.481761,27.712 L86.177761,36.256 C86.049761,36.72 85.985761,37.04 85.985761,37.28 C85.985761,37.536 86.097761,37.696 86.369761,37.696 C86.769761,37.696 87.121761,37.056 87.489761,36.048 Z M98.8767212,31.344 L97.5487212,36.256 C97.4207212,36.72 97.3567212,37.04 97.3567212,37.28 C97.3567212,37.536 97.4687212,37.696 97.7407212,37.696 C98.1407212,37.696 98.4927212,37.056 98.8607212,36.048 L99.5647212,36.256 C98.9247212,38.256 98.1087212,38.848 97.2767212,38.848 C96.6047212,38.848 96.0927212,38.4 96.0927212,37.536 C96.0927212,37.424 96.0927212,37.36 96.1087212,37.2 L95.9967212,37.152 C95.4047212,38.256 94.4767212,38.848 93.6287212,38.848 C92.3967212,38.848 91.6127212,37.776 91.6127212,36.368 C91.6127212,34.752 92.2527212,33.408 93.1007212,32.56 C93.8847212,31.776 94.8287212,31.248 95.7087212,31.248 C96.5567212,31.248 97.0047212,31.824 97.1007212,32.496 L97.4047212,31.344 L98.8767212,31.344 Z M94.2207212,37.712 C95.5967212,37.712 96.6847212,34.768 96.6847212,33.472 C96.6847212,32.624 96.3487212,32.144 95.7407212,32.144 C94.1727212,32.144 93.1807212,34.88 93.1807212,36.128 C93.1807212,37.12 93.5167212,37.712 94.2207212,37.712 Z M107.447681,32.336 C106.071681,32.336 104.839681,34.896 104.839681,36.384 C104.839681,37.44 105.191681,37.904 105.943681,37.904 C107.527681,37.904 108.375681,35.056 108.375681,33.808 C108.375681,32.88 108.103681,32.336 107.447681,32.336 Z M106.983681,27.712 L105.447681,32.944 L105.559681,32.992 C106.151681,31.888 107.079681,31.248 107.927681,31.248 C109.207681,31.248 109.943681,32.416 109.943681,33.824 C109.943681,36.752 107.623681,38.848 105.655681,38.848 C104.023681,38.848 103.303681,37.856 103.303681,36.496 C103.303681,35.872 103.527681,34.896 103.751681,34.096 L105.207681,28.864 L103.751681,28.864 L104.055681,27.712 L106.983681,27.712 Z M111.333161,38.704 L112.725161,33.472 C112.965161,32.56 112.949161,32.256 112.597161,32.256 C112.181161,32.256 111.749161,32.992 111.269161,33.984 L110.565161,33.664 C111.221161,32.16 111.973161,31.28 112.949161,31.28 C113.621161,31.28 114.053161,31.76 114.053161,32.752 C114.053161,33.232 113.941161,33.84 113.685161,34.528 L113.829161,34.576 C114.757161,32.464 115.541161,31.248 116.581161,31.248 C117.173161,31.248 117.621161,31.648 117.621161,32.32 C117.621161,33.04 117.157161,33.648 116.597161,33.648 C116.101161,33.648 115.765161,33.328 115.765161,32.736 C115.221161,32.976 113.989161,34.752 112.917161,38.704 L111.333161,38.704 Z M122.434642,28.736 C122.434642,29.328 121.938642,30.032 121.202642,30.032 C120.738642,30.032 120.370642,29.712 120.370642,29.152 C120.370642,28.544 120.834642,27.84 121.554642,27.84 C122.082642,27.84 122.434642,28.176 122.434642,28.736 Z M121.570642,32.944 C121.570642,34.16 120.290642,36.288 120.290642,37.296 C120.290642,37.568 120.402642,37.696 120.642642,37.696 C120.978642,37.696 121.346642,37.184 121.794642,36.048 L122.498642,36.256 C121.874642,38.192 121.026642,38.848 120.146642,38.848 C119.410642,38.848 118.850642,38.352 118.850642,37.408 C118.850642,35.744 120.178642,33.744 120.178642,32.624 C120.178642,32.352 120.098642,32.256 119.922642,32.256 C119.410642,32.256 118.994642,32.992 118.514642,33.984 L117.810642,33.664 C118.466642,32.16 119.266642,31.248 120.242642,31.248 C121.026642,31.248 121.570642,31.856 121.570642,32.944 Z M129.680122,32.8 C129.680122,34.192 128.160122,35.472 124.848122,35.744 C124.832122,35.936 124.816122,36.112 124.816122,36.272 C124.816122,37.52 125.472122,37.952 126.288122,37.952 C127.120122,37.952 127.952122,37.312 128.576122,36.352 L129.232122,36.736 C128.448122,37.968 127.488122,38.848 125.824122,38.848 C124.352122,38.848 123.264122,37.712 123.264122,36 C123.264122,33.568 125.440122,31.248 127.776122,31.248 C129.008122,31.248 129.680122,31.888 129.680122,32.8 Z M127.520122,32.048 C126.320122,32.048 125.392122,33.616 125.008122,35.024 C127.360122,34.72 128.304122,33.904 128.304122,32.832 C128.304122,32.416 128.048122,32.048 127.520122,32.048 Z M129.453602,41.376 C128.573602,41.376 128.189602,40.912 128.189602,40.384 C128.189602,39.84 128.605602,39.328 129.181602,39.328 C129.725602,39.328 129.933602,39.728 129.933602,40.032 C129.933602,40.32 129.853602,40.56 129.725602,40.672 C130.253602,40.672 130.493602,40.432 131.005602,38 L132.189602,32.432 L130.653602,32.432 L130.877602,31.568 L132.365602,31.568 C132.909602,28.976 134.349602,27.632 136.013602,27.632 C137.261602,27.632 137.741602,28.336 137.741602,28.96 C137.741602,29.696 137.261602,30.32 136.653602,30.32 C136.189602,30.32 135.869602,30.032 135.869602,29.52 C135.869602,29.216 136.013602,28.768 136.317602,28.512 C136.221602,28.448 136.061602,28.4 135.885602,28.4 C134.733602,28.4 134.317602,29.328 133.949602,31.104 L133.853602,31.568 L135.933602,31.568 L135.693602,32.432 L133.677602,32.432 L132.589602,37.552 C131.981602,40.48 130.605602,41.376 129.453602,41.376 Z M141.208562,37.712 C142.584562,37.712 143.688562,34.832 143.688562,33.344 C143.688562,32.56 143.432562,32.144 142.760562,32.144 C141.112562,32.144 140.168562,34.88 140.168562,36.128 C140.168562,37.12 140.504562,37.712 141.208562,37.712 Z M145.848562,36.048 L146.552562,36.256 C145.912562,38.256 145.096562,38.848 144.264562,38.848 C143.592562,38.848 143.080562,38.384 143.080562,37.52 C143.080562,37.44 143.080562,37.376 143.096562,37.2 L142.984562,37.152 C142.392562,38.256 141.464562,38.848 140.616562,38.848 C139.384562,38.848 138.600562,37.776 138.600562,36.368 C138.600562,34.752 139.240562,33.408 140.088562,32.56 C140.872562,31.776 141.816562,31.248 142.696562,31.248 C143.528562,31.248 143.944562,31.68 144.120562,32.368 L145.064562,28.864 L143.608562,28.864 L143.912562,27.712 L146.840562,27.712 L144.536562,36.256 C144.408562,36.72 144.344562,37.04 144.344562,37.28 C144.344562,37.536 144.456562,37.696 144.728562,37.696 C145.128562,37.696 145.480562,37.056 145.848562,36.048 Z M153.622042,32.8 C153.622042,34.192 152.102042,35.472 148.790042,35.744 C148.774042,35.936 148.758042,36.112 148.758042,36.272 C148.758042,37.52 149.414042,37.952 150.230042,37.952 C151.062042,37.952 151.894042,37.312 152.518042,36.352 L153.174042,36.736 C152.390042,37.968 151.430042,38.848 149.766042,38.848 C148.294042,38.848 147.206042,37.712 147.206042,36 C147.206042,33.568 149.382042,31.248 151.718042,31.248 C152.950042,31.248 153.622042,31.888 153.622042,32.8 Z M151.462042,32.048 C150.262042,32.048 149.334042,33.616 148.950042,35.024 C151.302042,34.72 152.246042,33.904 152.246042,32.832 C152.246042,32.416 151.990042,32.048 151.462042,32.048 Z M159.619522,36.352 C159.619522,37.984 158.291522,38.848 156.803522,38.848 C155.571522,38.848 153.955522,38.304 153.955522,37.04 C153.955522,36.48 154.307522,35.936 154.915522,35.936 C155.427522,35.936 155.715522,36.336 155.715522,36.736 C155.715522,37.152 155.507522,37.472 155.331522,37.6 C155.635522,37.904 156.243522,38.08 156.803522,38.08 C157.619522,38.08 158.195522,37.696 158.195522,36.864 C158.195522,36.256 157.571522,35.952 156.691522,35.568 C155.843522,35.184 154.947522,34.752 154.947522,33.696 C154.947522,32.016 156.515522,31.248 157.747522,31.248 C159.251522,31.248 160.291522,31.92 160.291522,32.848 C160.291522,33.44 159.955522,33.968 159.363522,33.968 C158.915522,33.968 158.579522,33.648 158.579522,33.2 C158.579522,32.896 158.755522,32.528 158.995522,32.352 C158.835522,32.176 158.291522,32 157.763522,32 C157.011522,32 156.371522,32.368 156.371522,33.136 C156.371522,33.76 156.979522,34.064 157.891522,34.464 C158.739522,34.848 159.619522,35.264 159.619522,36.352 Z M165.281002,31.248 C166.593002,31.248 167.425002,32.048 167.425002,32.992 C167.425002,33.552 167.089002,34.224 166.449002,34.224 C165.937002,34.224 165.601002,33.872 165.601002,33.44 C165.601002,33.088 165.761002,32.72 166.145002,32.384 C166.017002,32.224 165.729002,32.048 165.249002,32.048 C163.521002,32.048 162.561002,34.816 162.561002,36.08 C162.561002,37.408 163.249002,37.888 164.017002,37.888 C164.769002,37.888 165.489002,37.296 166.113002,36.24 L166.769002,36.624 C166.081002,37.904 165.233002,38.848 163.777002,38.848 C162.129002,38.848 161.009002,37.648 161.009002,35.968 C161.009002,33.568 163.105002,31.248 165.281002,31.248 Z M168.606482,38.704 L169.998482,33.472 C170.238482,32.56 170.222482,32.256 169.870482,32.256 C169.454482,32.256 169.022482,32.992 168.542482,33.984 L167.838482,33.664 C168.494482,32.16 169.246482,31.28 170.222482,31.28 C170.894482,31.28 171.326482,31.76 171.326482,32.752 C171.326482,33.232 171.214482,33.84 170.958482,34.528 L171.102482,34.576 C172.030482,32.464 172.814482,31.248 173.854482,31.248 C174.446482,31.248 174.894482,31.648 174.894482,32.32 C174.894482,33.04 174.430482,33.648 173.870482,33.648 C173.374482,33.648 173.038482,33.328 173.038482,32.736 C172.494482,32.976 171.262482,34.752 170.190482,38.704 L168.606482,38.704 Z M179.707962,28.736 C179.707962,29.328 179.211962,30.032 178.475962,30.032 C178.011962,30.032 177.643962,29.712 177.643962,29.152 C177.643962,28.544 178.107962,27.84 178.827962,27.84 C179.355962,27.84 179.707962,28.176 179.707962,28.736 Z M178.843962,32.944 C178.843962,34.16 177.563962,36.288 177.563962,37.296 C177.563962,37.568 177.675962,37.696 177.915962,37.696 C178.251962,37.696 178.619962,37.184 179.067962,36.048 L179.771962,36.256 C179.147962,38.192 178.299962,38.848 177.419962,38.848 C176.683962,38.848 176.123962,38.352 176.123962,37.408 C176.123962,35.744 177.451962,33.744 177.451962,32.624 C177.451962,32.352 177.371962,32.256 177.195962,32.256 C176.683962,32.256 176.267962,32.992 175.787962,33.984 L175.083962,33.664 C175.739962,32.16 176.539962,31.248 177.515962,31.248 C178.299962,31.248 178.843962,31.856 178.843962,32.944 Z M185.673442,32.336 C184.297442,32.336 183.065442,35.088 183.065442,36.416 C183.065442,37.248 183.417442,37.84 184.217442,37.84 C185.801442,37.84 186.601442,35.024 186.601442,33.776 C186.601442,32.848 186.329442,32.336 185.673442,32.336 Z M182.281442,33.728 C182.521442,32.848 182.473442,32.432 182.137442,32.432 C181.721442,32.432 181.449442,32.88 180.889442,33.984 L180.185442,33.664 C180.953442,31.952 181.689442,31.28 182.617442,31.28 C183.257442,31.28 183.705442,31.744 183.705442,32.56 C183.705442,32.672 183.689442,32.832 183.673442,32.944 L183.785442,32.992 C184.377442,31.888 185.305442,31.248 186.153442,31.248 C187.385442,31.248 188.169442,32.352 188.169442,33.792 C188.169442,36.56 186.201442,38.72 184.409442,38.72 C183.577442,38.72 182.937442,38.288 182.665442,37.76 L182.041442,40.112 L183.625442,40.112 L183.337442,41.168 L179.129442,41.168 L179.417442,40.112 L180.569442,40.112 L182.281442,33.728 Z M194.486922,32.432 L192.262922,32.432 L191.254922,36.08 C191.126922,36.56 191.046922,36.928 191.046922,37.136 C191.046922,37.536 191.222922,37.696 191.574922,37.696 C192.166922,37.696 192.662922,36.896 193.142922,35.92 L193.862922,36.128 C193.014922,38.448 191.814922,38.848 191.158922,38.848 C190.150922,38.848 189.542922,38.352 189.542922,37.408 C189.542922,36.88 189.750922,36.16 189.862922,35.712 L190.758922,32.432 L189.302922,32.432 L189.526922,31.568 L190.982922,31.568 L191.510922,29.632 L193.062922,29.472 L192.486922,31.568 L194.726922,31.568 L194.486922,32.432 Z M199.460403,28.736 C199.460403,29.328 198.964403,30.032 198.228403,30.032 C197.764403,30.032 197.396403,29.712 197.396403,29.152 C197.396403,28.544 197.860403,27.84 198.580403,27.84 C199.108403,27.84 199.460403,28.176 199.460403,28.736 Z M198.596403,32.944 C198.596403,34.16 197.316403,36.288 197.316403,37.296 C197.316403,37.568 197.428403,37.696 197.668403,37.696 C198.004403,37.696 198.372403,37.184 198.820403,36.048 L199.524403,36.256 C198.900403,38.192 198.052403,38.848 197.172403,38.848 C196.436403,38.848 195.876403,38.352 195.876403,37.408 C195.876403,35.744 197.204403,33.744 197.204403,32.624 C197.204403,32.352 197.124403,32.256 196.948403,32.256 C196.436403,32.256 196.020403,32.992 195.540403,33.984 L194.836403,33.664 C195.492403,32.16 196.292403,31.248 197.268403,31.248 C198.052403,31.248 198.596403,31.856 198.596403,32.944 Z M204.305883,31.248 C206.065883,31.248 207.137883,32.528 207.137883,34.32 C207.137883,36.752 205.281883,38.848 203.137883,38.848 C201.377883,38.848 200.305883,37.568 200.305883,35.776 C200.305883,33.344 202.161883,31.248 204.305883,31.248 Z M205.585883,33.648 C205.585883,32.592 205.137883,32.048 204.305883,32.048 C202.769883,32.048 201.857883,34.736 201.857883,36.448 C201.857883,37.504 202.305883,38.048 203.137883,38.048 C204.673883,38.048 205.585883,35.36 205.585883,33.648 Z M214.447363,37.344 C214.447363,37.568 214.527363,37.696 214.735363,37.696 C215.103363,37.696 215.455363,37.056 215.823363,36.048 L216.527363,36.256 C215.887363,38.256 215.055363,38.848 214.319363,38.848 C213.583363,38.848 213.023363,38.352 213.023363,37.408 C213.023363,35.696 214.079363,34.224 214.079363,33.024 C214.079363,32.608 213.919363,32.464 213.663363,32.464 C212.863363,32.464 211.375363,34 210.111363,38.704 L208.527363,38.704 L209.919363,33.472 C210.159363,32.56 210.143363,32.256 209.791363,32.256 C209.375363,32.256 208.943363,32.992 208.463363,33.984 L207.759363,33.664 C208.415363,32.16 209.167363,31.28 210.143363,31.28 C210.815363,31.28 211.247363,31.76 211.247363,32.752 C211.247363,33.232 211.135363,33.84 210.879363,34.528 L210.991363,34.576 C211.999363,32.416 213.151363,31.248 214.239363,31.248 C215.087363,31.248 215.583363,32 215.583363,32.944 C215.583363,34.24 214.447363,36.24 214.447363,37.344 Z" id="hovertoreadabriefdescription" fill="#8E8E93"></path>
                </g>
            </g>
        </g>
    </g>
</svg>