<?xml version="1.0" encoding="UTF-8"?>
<svg width="221px" height="42px" viewBox="0 0 221 42" version="1.1" xmlns="http://www.w3.org/2000/svg" xmlns:xlink="http://www.w3.org/1999/xlink">
    <!-- Generator: Sketch 55.2 (78181) - https://sketchapp.com -->
    <title>Group 16</title>
    <desc>Created with Sketch.</desc>
    <g id="Page-1" stroke="none" stroke-width="1" fill="none" fill-rule="evenodd">
        <g id="Desktop-HD-Copy-10" transform="translate(-325.000000, -2408.000000)" fill-rule="nonzero">
            <g id="Group-4" transform="translate(0.000000, 279.000000)">
                <g id="Group-7" transform="translate(0.000000, 1626.000000)">
                    <g id="Group-10" transform="translate(324.000000, 503.000000)">
                        <g id="Group-3" transform="translate(0.500000, 0.000000)">
                            <g id="Group-16" transform="translate(0.528319, 0.296000)">
                                <path d="M36.8162505,17.04 L29.9282505,0.384 L31.6082505,0.384 L36.8882505,13.512 L42.1922505,0.384 L43.8002505,0.384 L36.9122505,17.04 L36.8162505,17.04 Z M46.6524707,16.704 L46.6524707,0.384 L48.2364707,0.384 L48.2364707,16.704 L46.6524707,16.704 Z M51.0886908,13.608 L52.4086908,12.912 C53.2726908,14.544 54.7606908,15.48 56.6806908,15.48 C58.9126908,15.48 60.2326908,14.376 60.2326908,12.672 C60.2326908,10.872 59.1286908,10.08 57.1606908,9.168 L55.8406908,8.544 C53.4886908,7.44 52.0486908,6.36 52.0486908,4.08 C52.0486908,1.752 53.8726908,0.192 56.3206908,0.192 C58.4326908,0.192 59.8246908,0.96 60.8326908,2.592 L59.6326908,3.36 C58.9126908,2.136 57.8566908,1.56 56.3446908,1.56 C54.6886908,1.56 53.5846908,2.592 53.5846908,4.032 C53.5846908,5.592 54.4726908,6.192 56.4646908,7.128 L57.7606908,7.752 C60.3766908,8.976 61.7926908,10.176 61.7926908,12.624 C61.7926908,15.312 59.7526908,16.896 56.7046908,16.896 C54.0406908,16.896 52.1446908,15.6 51.0886908,13.608 Z M70.5969109,16.896 C67.3089109,16.896 64.8369109,14.952 64.8369109,11.16 L64.8369109,0.384 L66.3969109,0.384 L66.3969109,11.04 C66.3969109,13.992 68.0529109,15.48 70.5969109,15.48 C73.1649109,15.48 74.7969109,13.992 74.7969109,11.04 L74.7969109,0.384 L76.3569109,0.384 L76.3569109,11.16 C76.3569109,14.952 73.8849109,16.896 70.5969109,16.896 Z M90.4891311,16.704 L88.8571311,12.672 L81.4651311,12.672 L79.8571311,16.704 L78.2731311,16.704 L85.1371311,-1.77635684e-14 L85.2571311,-1.77635684e-14 L92.1451311,16.704 L90.4891311,16.704 Z M85.1611311,3.528 L82.0411311,11.28 L88.2811311,11.28 L85.1611311,3.528 Z M94.9013512,16.704 L94.9013512,0.384 L96.4613512,0.384 L96.4613512,15.312 L104.045351,15.312 L104.045351,16.704 L94.9013512,16.704 Z M112.173791,16.704 L112.173791,0.384 L116.253791,0.384 C121.653791,0.384 124.869791,3.72 124.869791,8.544 C124.869791,13.368 121.677791,16.704 116.253791,16.704 L112.173791,16.704 Z M113.733791,15.288 L116.109791,15.288 C120.933791,15.288 123.237791,12.504 123.237791,8.544 C123.237791,4.584 120.933791,1.8 116.109791,1.8 L113.733791,1.8 L113.733791,15.288 Z M127.986012,16.704 L127.986012,0.384 L137.826012,0.384 L137.826012,1.776 L129.546012,1.776 L129.546012,7.8 L136.938012,7.8 L136.938012,9.168 L129.546012,9.168 L129.546012,15.312 L138.162012,15.312 L138.162012,16.704 L127.986012,16.704 Z M140.054232,13.608 L141.374232,12.912 C142.238232,14.544 143.726232,15.48 145.646232,15.48 C147.878232,15.48 149.198232,14.376 149.198232,12.672 C149.198232,10.872 148.094232,10.08 146.126232,9.168 L144.806232,8.544 C142.454232,7.44 141.014232,6.36 141.014232,4.08 C141.014232,1.752 142.838232,0.192 145.286232,0.192 C147.398232,0.192 148.790232,0.96 149.798232,2.592 L148.598232,3.36 C147.878232,2.136 146.822232,1.56 145.310232,1.56 C143.654232,1.56 142.550232,2.592 142.550232,4.032 C142.550232,5.592 143.438232,6.192 145.430232,7.128 L146.726232,7.752 C149.342232,8.976 150.758232,10.176 150.758232,12.624 C150.758232,15.312 148.718232,16.896 145.670232,16.896 C143.006232,16.896 141.110232,15.6 140.054232,13.608 Z M154.018452,16.704 L154.018452,0.384 L155.602452,0.384 L155.602452,16.704 L154.018452,16.704 Z M167.262672,16.896 C162.462672,16.896 158.742672,13.392 158.742672,8.544 C158.742672,3.72 162.438672,0.192 167.022672,0.192 C169.878672,0.192 171.774672,1.2 173.166672,2.736 L172.062672,3.768 C170.934672,2.52 169.494672,1.608 166.974672,1.608 C163.182672,1.608 160.374672,4.584 160.374672,8.544 C160.374672,12.504 163.230672,15.48 167.262672,15.48 C169.662672,15.48 171.174672,14.784 172.230672,13.896 L172.230672,10.152 L167.310672,10.152 L167.310672,8.76 L173.718672,8.76 L173.718672,14.616 C172.230672,15.936 170.334672,16.896 167.262672,16.896 Z M189.554892,17.04 L178.562892,3.864 L178.562892,16.704 L177.098892,16.704 L177.098892,0.048 L177.242892,0.048 L188.234892,13.224 L188.234892,0.384 L189.698892,0.384 L189.698892,17.04 L189.554892,17.04 Z" id="VISUALDESIGN" fill="#FF3B30"></path>
                                <path d="M5.664,36.352 C5.664,37.984 4.336,38.848 2.848,38.848 C1.616,38.848 1.03739239e-12,38.304 1.03739239e-12,37.04 C1.03739239e-12,36.48 0.352,35.936 0.96,35.936 C1.472,35.936 1.76,36.336 1.76,36.736 C1.76,37.152 1.552,37.472 1.376,37.6 C1.68,37.904 2.288,38.08 2.848,38.08 C3.664,38.08 4.24,37.696 4.24,36.864 C4.24,36.256 3.616,35.952 2.736,35.568 C1.888,35.184 0.992,34.752 0.992,33.696 C0.992,32.016 2.56,31.248 3.792,31.248 C5.296,31.248 6.336,31.92 6.336,32.848 C6.336,33.44 6,33.968 5.408,33.968 C4.96,33.968 4.624,33.648 4.624,33.2 C4.624,32.896 4.8,32.528 5.04,32.352 C4.88,32.176 4.336,32 3.808,32 C3.056,32 2.416,32.368 2.416,33.136 C2.416,33.76 3.024,34.064 3.936,34.464 C4.784,34.848 5.664,35.264 5.664,36.352 Z M11.0534801,31.248 C12.8134801,31.248 13.8854801,32.528 13.8854801,34.32 C13.8854801,36.752 12.0294801,38.848 9.88548009,38.848 C8.12548009,38.848 7.05348009,37.568 7.05348009,35.776 C7.05348009,33.344 8.90948009,31.248 11.0534801,31.248 Z M12.3334801,33.648 C12.3334801,32.592 11.8854801,32.048 11.0534801,32.048 C9.51748009,32.048 8.60548009,34.736 8.60548009,36.448 C8.60548009,37.504 9.05348009,38.048 9.88548009,38.048 C11.4214801,38.048 12.3334801,35.36 12.3334801,33.648 Z M25.3229602,38.848 C24.5869602,38.848 24.0269602,38.352 24.0269602,37.408 C24.0269602,35.696 25.0829602,34.224 25.0829602,33.024 C25.0829602,32.608 24.9229602,32.464 24.6669602,32.464 C23.8669602,32.464 22.3789602,34 21.1149602,38.704 L19.5629602,38.704 L20.7149602,34.368 C20.8109602,34.016 20.8909602,33.6 20.8909602,33.248 C20.8909602,32.832 20.7789602,32.464 20.4109602,32.464 C19.6109602,32.464 18.1229602,34 16.8589602,38.704 L15.2749602,38.704 L16.6669602,33.472 C16.9069602,32.56 16.8909602,32.256 16.5389602,32.256 C16.1229602,32.256 15.6909602,32.992 15.2109602,33.984 L14.5069602,33.664 C15.1629602,32.16 15.9149602,31.28 16.8909602,31.28 C17.5629602,31.28 17.9949602,31.76 17.9949602,32.752 C17.9949602,33.232 17.8829602,33.84 17.6269602,34.528 L17.7389602,34.576 C18.7469602,32.416 19.8989602,31.248 20.9869602,31.248 C21.8349602,31.248 22.2669602,31.872 22.2669602,32.816 C22.2669602,33.296 22.1389602,33.84 21.8829602,34.528 L21.9949602,34.576 C23.0029602,32.416 24.1549602,31.248 25.2429602,31.248 C26.0909602,31.248 26.5869602,32 26.5869602,32.944 C26.5869602,34.24 25.4509602,36.24 25.4509602,37.344 C25.4509602,37.568 25.5309602,37.696 25.7389602,37.696 C26.1069602,37.696 26.4589602,37.056 26.8269602,36.048 L27.5309602,36.256 C26.8909602,38.256 26.0589602,38.848 25.3229602,38.848 Z M34.6644403,32.8 C34.6644403,34.192 33.1444403,35.472 29.8324403,35.744 C29.8164403,35.936 29.8004403,36.112 29.8004403,36.272 C29.8004403,37.52 30.4564403,37.952 31.2724403,37.952 C32.1044403,37.952 32.9364403,37.312 33.5604403,36.352 L34.2164403,36.736 C33.4324403,37.968 32.4724403,38.848 30.8084403,38.848 C29.3364403,38.848 28.2484403,37.712 28.2484403,36 C28.2484403,33.568 30.4244403,31.248 32.7604403,31.248 C33.9924403,31.248 34.6644403,31.888 34.6644403,32.8 Z M32.5044403,32.048 C31.3044403,32.048 30.3764403,33.616 29.9924403,35.024 C32.3444403,34.72 33.2884403,33.904 33.2884403,32.832 C33.2884403,32.416 33.0324403,32.048 32.5044403,32.048 Z M42.7074004,32.336 C41.3314004,32.336 40.0994004,34.896 40.0994004,36.384 C40.0994004,37.44 40.4514004,37.904 41.2034004,37.904 C42.7874004,37.904 43.6354004,35.056 43.6354004,33.808 C43.6354004,32.88 43.3634004,32.336 42.7074004,32.336 Z M42.2434004,27.712 L40.7074004,32.944 L40.8194004,32.992 C41.4114004,31.888 42.3394004,31.248 43.1874004,31.248 C44.4674004,31.248 45.2034004,32.416 45.2034004,33.824 C45.2034004,36.752 42.8834004,38.848 40.9154004,38.848 C39.2834004,38.848 38.5634004,37.856 38.5634004,36.496 C38.5634004,35.872 38.7874004,34.896 39.0114004,34.096 L40.4674004,28.864 L39.0114004,28.864 L39.3154004,27.712 L42.2434004,27.712 Z M46.5928805,38.704 L47.9848805,33.472 C48.2248805,32.56 48.2088805,32.256 47.8568805,32.256 C47.4408805,32.256 47.0088805,32.992 46.5288805,33.984 L45.8248805,33.664 C46.4808805,32.16 47.2328805,31.28 48.2088805,31.28 C48.8808805,31.28 49.3128805,31.76 49.3128805,32.752 C49.3128805,33.232 49.2008805,33.84 48.9448805,34.528 L49.0888805,34.576 C50.0168805,32.464 50.8008805,31.248 51.8408805,31.248 C52.4328805,31.248 52.8808805,31.648 52.8808805,32.32 C52.8808805,33.04 52.4168805,33.648 51.8568805,33.648 C51.3608805,33.648 51.0248805,33.328 51.0248805,32.736 C50.4808805,32.976 49.2488805,34.752 48.1768805,38.704 L46.5928805,38.704 Z M57.6943606,28.736 C57.6943606,29.328 57.1983606,30.032 56.4623606,30.032 C55.9983606,30.032 55.6303606,29.712 55.6303606,29.152 C55.6303606,28.544 56.0943606,27.84 56.8143606,27.84 C57.3423606,27.84 57.6943606,28.176 57.6943606,28.736 Z M56.8303606,32.944 C56.8303606,34.16 55.5503606,36.288 55.5503606,37.296 C55.5503606,37.568 55.6623606,37.696 55.9023606,37.696 C56.2383606,37.696 56.6063606,37.184 57.0543606,36.048 L57.7583606,36.256 C57.1343606,38.192 56.2863606,38.848 55.4063606,38.848 C54.6703606,38.848 54.1103606,38.352 54.1103606,37.408 C54.1103606,35.744 55.4383606,33.744 55.4383606,32.624 C55.4383606,32.352 55.3583606,32.256 55.1823606,32.256 C54.6703606,32.256 54.2543606,32.992 53.7743606,33.984 L53.0703606,33.664 C53.7263606,32.16 54.5263606,31.248 55.5023606,31.248 C56.2863606,31.248 56.8303606,31.856 56.8303606,32.944 Z M64.9398407,32.8 C64.9398407,34.192 63.4198407,35.472 60.1078407,35.744 C60.0918407,35.936 60.0758407,36.112 60.0758407,36.272 C60.0758407,37.52 60.7318407,37.952 61.5478407,37.952 C62.3798407,37.952 63.2118407,37.312 63.8358407,36.352 L64.4918407,36.736 C63.7078407,37.968 62.7478407,38.848 61.0838407,38.848 C59.6118407,38.848 58.5238407,37.712 58.5238407,36 C58.5238407,33.568 60.6998407,31.248 63.0358407,31.248 C64.2678407,31.248 64.9398407,31.888 64.9398407,32.8 Z M62.7798407,32.048 C61.5798407,32.048 60.6518407,33.616 60.2678407,35.024 C62.6198407,34.72 63.5638407,33.904 63.5638407,32.832 C63.5638407,32.416 63.3078407,32.048 62.7798407,32.048 Z M64.7133208,41.376 C63.8333208,41.376 63.4493208,40.912 63.4493208,40.384 C63.4493208,39.84 63.8653208,39.328 64.4413208,39.328 C64.9853208,39.328 65.1933208,39.728 65.1933208,40.032 C65.1933208,40.32 65.1133208,40.56 64.9853208,40.672 C65.5133208,40.672 65.7533208,40.432 66.2653208,38 L67.4493208,32.432 L65.9133208,32.432 L66.1373208,31.568 L67.6253208,31.568 C68.1693208,28.976 69.6093208,27.632 71.2733208,27.632 C72.5213208,27.632 73.0013208,28.336 73.0013208,28.96 C73.0013208,29.696 72.5213208,30.32 71.9133208,30.32 C71.4493208,30.32 71.1293208,30.032 71.1293208,29.52 C71.1293208,29.216 71.2733208,28.768 71.5773208,28.512 C71.4813208,28.448 71.3213208,28.4 71.1453208,28.4 C69.9933208,28.4 69.5773208,29.328 69.2093208,31.104 L69.1133208,31.568 L71.1933208,31.568 L70.9533208,32.432 L68.9373208,32.432 L67.8493208,37.552 C67.2413208,40.48 65.8653208,41.376 64.7133208,41.376 Z M76.0522809,31.264 C76.8682809,31.264 77.2522809,31.792 77.2522809,32.624 C77.2522809,34.176 76.0522809,35.936 76.0522809,36.912 C76.0522809,37.456 76.4202809,37.696 77.0122809,37.696 C78.5162809,37.696 79.6682809,35.216 79.8442809,33.264 C79.7482809,33.312 79.5722809,33.344 79.4762809,33.344 C78.9802809,33.344 78.6282809,33.008 78.6282809,32.432 C78.6282809,31.808 79.0922809,31.216 79.6842809,31.216 C80.3722809,31.216 80.7722809,31.664 80.7722809,32.768 C80.7722809,34.912 79.0922809,38.896 76.5002809,38.896 C75.3322809,38.896 74.5642809,38.192 74.5642809,37.184 C74.5642809,35.92 75.8122809,33.616 75.8122809,32.8 C75.8122809,32.544 75.7482809,32.416 75.5562809,32.416 C75.1402809,32.416 74.8842809,32.832 74.3082809,33.984 L73.6042809,33.664 C74.2602809,32.16 75.0282809,31.264 76.0522809,31.264 Z M85.953761,28.736 C85.953761,29.328 85.457761,30.032 84.721761,30.032 C84.257761,30.032 83.889761,29.712 83.889761,29.152 C83.889761,28.544 84.353761,27.84 85.073761,27.84 C85.601761,27.84 85.953761,28.176 85.953761,28.736 Z M85.089761,32.944 C85.089761,34.16 83.809761,36.288 83.809761,37.296 C83.809761,37.568 83.921761,37.696 84.161761,37.696 C84.497761,37.696 84.865761,37.184 85.313761,36.048 L86.017761,36.256 C85.393761,38.192 84.545761,38.848 83.665761,38.848 C82.929761,38.848 82.369761,38.352 82.369761,37.408 C82.369761,35.744 83.697761,33.744 83.697761,32.624 C83.697761,32.352 83.617761,32.256 83.441761,32.256 C82.929761,32.256 82.513761,32.992 82.033761,33.984 L81.329761,33.664 C81.985761,32.16 82.785761,31.248 83.761761,31.248 C84.545761,31.248 85.089761,31.856 85.089761,32.944 Z M92.1272411,36.352 C92.1272411,37.984 90.7992411,38.848 89.3112411,38.848 C88.0792411,38.848 86.4632411,38.304 86.4632411,37.04 C86.4632411,36.48 86.8152411,35.936 87.4232411,35.936 C87.9352411,35.936 88.2232411,36.336 88.2232411,36.736 C88.2232411,37.152 88.0152411,37.472 87.8392411,37.6 C88.1432411,37.904 88.7512411,38.08 89.3112411,38.08 C90.1272411,38.08 90.7032411,37.696 90.7032411,36.864 C90.7032411,36.256 90.0792411,35.952 89.1992411,35.568 C88.3512411,35.184 87.4552411,34.752 87.4552411,33.696 C87.4552411,32.016 89.0232411,31.248 90.2552411,31.248 C91.7592411,31.248 92.7992411,31.92 92.7992411,32.848 C92.7992411,33.44 92.4632411,33.968 91.8712411,33.968 C91.4232411,33.968 91.0872411,33.648 91.0872411,33.2 C91.0872411,32.896 91.2632411,32.528 91.5032411,32.352 C91.3432411,32.176 90.7992411,32 90.2712411,32 C89.5192411,32 88.8792411,32.368 88.8792411,33.136 C88.8792411,33.76 89.4872411,34.064 90.3992411,34.464 C91.2472411,34.848 92.1272411,35.264 92.1272411,36.352 Z M99.7887212,38.848 C99.0207212,38.848 98.5407212,38.432 98.5407212,37.392 C98.5407212,36.992 98.6527212,36.32 98.9087212,35.6 L98.7967212,35.552 C97.7887212,37.712 96.6847212,38.848 95.5967212,38.848 C94.7487212,38.848 94.2527212,38.112 94.2527212,37.168 C94.2527212,35.872 95.3727212,33.76 95.3727212,32.752 C95.3727212,32.544 95.2927212,32.4 95.1327212,32.4 C94.7487212,32.4 94.4767212,32.816 93.9007212,33.968 L93.1967212,33.648 C93.8527212,32.144 94.6367212,31.248 95.6287212,31.248 C96.3647212,31.248 96.8127212,31.744 96.8127212,32.688 C96.8127212,34.256 95.7567212,35.888 95.7567212,36.992 C95.7567212,37.488 95.9167212,37.648 96.1727212,37.648 C96.9727212,37.648 98.4127212,36.16 99.7087212,31.344 L101.292721,31.344 L99.9807212,36.256 C99.8527212,36.736 99.7887212,37.056 99.7887212,37.28 C99.7887212,37.552 99.9327212,37.696 100.172721,37.696 C100.588721,37.696 100.924721,37.056 101.292721,36.048 L101.996721,36.256 C101.356721,38.256 100.524721,38.848 99.7887212,38.848 Z M109.834201,31.344 L108.506201,36.256 C108.378201,36.72 108.314201,37.04 108.314201,37.28 C108.314201,37.536 108.426201,37.696 108.698201,37.696 C109.098201,37.696 109.450201,37.056 109.818201,36.048 L110.522201,36.256 C109.882201,38.256 109.066201,38.848 108.234201,38.848 C107.562201,38.848 107.050201,38.4 107.050201,37.536 C107.050201,37.424 107.050201,37.36 107.066201,37.2 L106.954201,37.152 C106.362201,38.256 105.434201,38.848 104.586201,38.848 C103.354201,38.848 102.570201,37.776 102.570201,36.368 C102.570201,34.752 103.210201,33.408 104.058201,32.56 C104.842201,31.776 105.786201,31.248 106.666201,31.248 C107.514201,31.248 107.962201,31.824 108.058201,32.496 L108.362201,31.344 L109.834201,31.344 Z M105.178201,37.712 C106.554201,37.712 107.642201,34.768 107.642201,33.472 C107.642201,32.624 107.306201,32.144 106.698201,32.144 C105.130201,32.144 104.138201,34.88 104.138201,36.128 C104.138201,37.12 104.474201,37.712 105.178201,37.712 Z M111.319681,37.408 C111.319681,36.832 111.543681,35.92 111.847681,34.784 L113.463681,28.864 L112.007681,28.864 L112.311681,27.712 L115.239681,27.712 L112.935681,36.256 C112.807681,36.72 112.743681,37.072 112.743681,37.296 C112.743681,37.6 112.919681,37.696 113.095681,37.696 C113.543681,37.696 113.879681,37.056 114.247681,36.048 L114.951681,36.256 C114.311681,38.256 113.527681,38.848 112.679681,38.848 C111.783681,38.848 111.319681,38.304 111.319681,37.408 Z M121.090642,37.712 C122.466642,37.712 123.570642,34.832 123.570642,33.344 C123.570642,32.56 123.314642,32.144 122.642642,32.144 C120.994642,32.144 120.050642,34.88 120.050642,36.128 C120.050642,37.12 120.386642,37.712 121.090642,37.712 Z M125.730642,36.048 L126.434642,36.256 C125.794642,38.256 124.978642,38.848 124.146642,38.848 C123.474642,38.848 122.962642,38.384 122.962642,37.52 C122.962642,37.44 122.962642,37.376 122.978642,37.2 L122.866642,37.152 C122.274642,38.256 121.346642,38.848 120.498642,38.848 C119.266642,38.848 118.482642,37.776 118.482642,36.368 C118.482642,34.752 119.122642,33.408 119.970642,32.56 C120.754642,31.776 121.698642,31.248 122.578642,31.248 C123.410642,31.248 123.826642,31.68 124.002642,32.368 L124.946642,28.864 L123.490642,28.864 L123.794642,27.712 L126.722642,27.712 L124.418642,36.256 C124.290642,36.72 124.226642,37.04 124.226642,37.28 C124.226642,37.536 124.338642,37.696 124.610642,37.696 C125.010642,37.696 125.362642,37.056 125.730642,36.048 Z M133.504122,32.8 C133.504122,34.192 131.984122,35.472 128.672122,35.744 C128.656122,35.936 128.640122,36.112 128.640122,36.272 C128.640122,37.52 129.296122,37.952 130.112122,37.952 C130.944122,37.952 131.776122,37.312 132.400122,36.352 L133.056122,36.736 C132.272122,37.968 131.312122,38.848 129.648122,38.848 C128.176122,38.848 127.088122,37.712 127.088122,36 C127.088122,33.568 129.264122,31.248 131.600122,31.248 C132.832122,31.248 133.504122,31.888 133.504122,32.8 Z M131.344122,32.048 C130.144122,32.048 129.216122,33.616 128.832122,35.024 C131.184122,34.72 132.128122,33.904 132.128122,32.832 C132.128122,32.416 131.872122,32.048 131.344122,32.048 Z M139.501602,36.352 C139.501602,37.984 138.173602,38.848 136.685602,38.848 C135.453602,38.848 133.837602,38.304 133.837602,37.04 C133.837602,36.48 134.189602,35.936 134.797602,35.936 C135.309602,35.936 135.597602,36.336 135.597602,36.736 C135.597602,37.152 135.389602,37.472 135.213602,37.6 C135.517602,37.904 136.125602,38.08 136.685602,38.08 C137.501602,38.08 138.077602,37.696 138.077602,36.864 C138.077602,36.256 137.453602,35.952 136.573602,35.568 C135.725602,35.184 134.829602,34.752 134.829602,33.696 C134.829602,32.016 136.397602,31.248 137.629602,31.248 C139.133602,31.248 140.173602,31.92 140.173602,32.848 C140.173602,33.44 139.837602,33.968 139.245602,33.968 C138.797602,33.968 138.461602,33.648 138.461602,33.2 C138.461602,32.896 138.637602,32.528 138.877602,32.352 C138.717602,32.176 138.173602,32 137.645602,32 C136.893602,32 136.253602,32.368 136.253602,33.136 C136.253602,33.76 136.861602,34.064 137.773602,34.464 C138.621602,34.848 139.501602,35.264 139.501602,36.352 Z M145.339082,28.736 C145.339082,29.328 144.843082,30.032 144.107082,30.032 C143.643082,30.032 143.275082,29.712 143.275082,29.152 C143.275082,28.544 143.739082,27.84 144.459082,27.84 C144.987082,27.84 145.339082,28.176 145.339082,28.736 Z M144.475082,32.944 C144.475082,34.16 143.195082,36.288 143.195082,37.296 C143.195082,37.568 143.307082,37.696 143.547082,37.696 C143.883082,37.696 144.251082,37.184 144.699082,36.048 L145.403082,36.256 C144.779082,38.192 143.931082,38.848 143.051082,38.848 C142.315082,38.848 141.755082,38.352 141.755082,37.408 C141.755082,35.744 143.083082,33.744 143.083082,32.624 C143.083082,32.352 143.003082,32.256 142.827082,32.256 C142.315082,32.256 141.899082,32.992 141.419082,33.984 L140.715082,33.664 C141.371082,32.16 142.171082,31.248 143.147082,31.248 C143.931082,31.248 144.475082,31.856 144.475082,32.944 Z M146.920562,40.352 C147.128562,40.448 147.496562,40.528 147.944562,40.528 C148.568562,40.528 149.016562,40.336 149.400562,39.936 C149.880562,39.44 150.216562,38.592 150.504562,37.328 L150.392562,37.28 C149.880562,37.952 149.048562,38.368 148.264562,38.368 C146.952562,38.368 146.184562,37.312 146.184562,36.08 C146.184562,34.64 146.728562,33.312 147.688562,32.352 C148.408562,31.632 149.176562,31.248 150.056562,31.248 C150.872562,31.248 151.464562,31.76 151.640562,32.464 L151.912562,31.344 L153.384562,31.344 L151.992562,37.216 C151.304562,40.144 150.056562,41.376 147.896562,41.376 C146.696562,41.376 145.432562,41.056 145.432562,39.92 C145.432562,39.408 145.784562,38.752 146.440562,38.752 C147.000562,38.752 147.256562,39.136 147.256562,39.568 C147.256562,39.856 147.080562,40.192 146.920562,40.352 Z M148.824562,37.312 C150.104562,37.312 151.256562,35.328 151.256562,33.568 C151.256562,32.72 150.712562,32.144 150.136562,32.144 C148.696562,32.144 147.752562,34.368 147.752562,35.952 C147.752562,36.848 148.104562,37.312 148.824562,37.312 Z M160.406042,37.344 C160.406042,37.568 160.486042,37.696 160.694042,37.696 C161.062042,37.696 161.414042,37.056 161.782042,36.048 L162.486042,36.256 C161.846042,38.256 161.014042,38.848 160.278042,38.848 C159.542042,38.848 158.982042,38.352 158.982042,37.408 C158.982042,35.696 160.038042,34.224 160.038042,33.024 C160.038042,32.608 159.878042,32.464 159.622042,32.464 C158.822042,32.464 157.334042,34 156.070042,38.704 L154.486042,38.704 L155.878042,33.472 C156.118042,32.56 156.102042,32.256 155.750042,32.256 C155.334042,32.256 154.902042,32.992 154.422042,33.984 L153.718042,33.664 C154.374042,32.16 155.126042,31.28 156.102042,31.28 C156.774042,31.28 157.206042,31.76 157.206042,32.752 C157.206042,33.232 157.094042,33.84 156.838042,34.528 L156.950042,34.576 C157.958042,32.416 159.110042,31.248 160.198042,31.248 C161.046042,31.248 161.542042,32 161.542042,32.944 C161.542042,34.24 160.406042,36.24 160.406042,37.344 Z M171.297002,36.352 C171.297002,37.984 169.969002,38.848 168.481002,38.848 C167.249002,38.848 165.633002,38.304 165.633002,37.04 C165.633002,36.48 165.985002,35.936 166.593002,35.936 C167.105002,35.936 167.393002,36.336 167.393002,36.736 C167.393002,37.152 167.185002,37.472 167.009002,37.6 C167.313002,37.904 167.921002,38.08 168.481002,38.08 C169.297002,38.08 169.873002,37.696 169.873002,36.864 C169.873002,36.256 169.249002,35.952 168.369002,35.568 C167.521002,35.184 166.625002,34.752 166.625002,33.696 C166.625002,32.016 168.193002,31.248 169.425002,31.248 C170.929002,31.248 171.969002,31.92 171.969002,32.848 C171.969002,33.44 171.633002,33.968 171.041002,33.968 C170.593002,33.968 170.257002,33.648 170.257002,33.2 C170.257002,32.896 170.433002,32.528 170.673002,32.352 C170.513002,32.176 169.969002,32 169.441002,32 C168.689002,32 168.049002,32.368 168.049002,33.136 C168.049002,33.76 168.657002,34.064 169.569002,34.464 C170.417002,34.848 171.297002,35.264 171.297002,36.352 Z M179.950482,31.344 L178.622482,36.256 C178.494482,36.72 178.430482,37.04 178.430482,37.28 C178.430482,37.536 178.542482,37.696 178.814482,37.696 C179.214482,37.696 179.566482,37.056 179.934482,36.048 L180.638482,36.256 C179.998482,38.256 179.182482,38.848 178.350482,38.848 C177.678482,38.848 177.166482,38.4 177.166482,37.536 C177.166482,37.424 177.166482,37.36 177.182482,37.2 L177.070482,37.152 C176.478482,38.256 175.550482,38.848 174.702482,38.848 C173.470482,38.848 172.686482,37.776 172.686482,36.368 C172.686482,34.752 173.326482,33.408 174.174482,32.56 C174.958482,31.776 175.902482,31.248 176.782482,31.248 C177.630482,31.248 178.078482,31.824 178.174482,32.496 L178.478482,31.344 L179.950482,31.344 Z M175.294482,37.712 C176.670482,37.712 177.758482,34.768 177.758482,33.472 C177.758482,32.624 177.422482,32.144 176.814482,32.144 C175.246482,32.144 174.254482,34.88 174.254482,36.128 C174.254482,37.12 174.590482,37.712 175.294482,37.712 Z M191.755962,38.848 C191.019962,38.848 190.459962,38.352 190.459962,37.408 C190.459962,35.696 191.515962,34.224 191.515962,33.024 C191.515962,32.608 191.355962,32.464 191.099962,32.464 C190.299962,32.464 188.811962,34 187.547962,38.704 L185.995962,38.704 L187.147962,34.368 C187.243962,34.016 187.323962,33.6 187.323962,33.248 C187.323962,32.832 187.211962,32.464 186.843962,32.464 C186.043962,32.464 184.555962,34 183.291962,38.704 L181.707962,38.704 L183.099962,33.472 C183.339962,32.56 183.323962,32.256 182.971962,32.256 C182.555962,32.256 182.123962,32.992 181.643962,33.984 L180.939962,33.664 C181.595962,32.16 182.347962,31.28 183.323962,31.28 C183.995962,31.28 184.427962,31.76 184.427962,32.752 C184.427962,33.232 184.315962,33.84 184.059962,34.528 L184.171962,34.576 C185.179962,32.416 186.331962,31.248 187.419962,31.248 C188.267962,31.248 188.699962,31.872 188.699962,32.816 C188.699962,33.296 188.571962,33.84 188.315962,34.528 L188.427962,34.576 C189.435962,32.416 190.587962,31.248 191.675962,31.248 C192.523962,31.248 193.019962,32 193.019962,32.944 C193.019962,34.24 191.883962,36.24 191.883962,37.344 C191.883962,37.568 191.963962,37.696 192.171962,37.696 C192.539962,37.696 192.891962,37.056 193.259962,36.048 L193.963962,36.256 C193.323962,38.256 192.491962,38.848 191.755962,38.848 Z M199.817442,32.336 C198.441442,32.336 197.209442,35.088 197.209442,36.416 C197.209442,37.248 197.561442,37.84 198.361442,37.84 C199.945442,37.84 200.745442,35.024 200.745442,33.776 C200.745442,32.848 200.473442,32.336 199.817442,32.336 Z M196.425442,33.728 C196.665442,32.848 196.617442,32.432 196.281442,32.432 C195.865442,32.432 195.593442,32.88 195.033442,33.984 L194.329442,33.664 C195.097442,31.952 195.833442,31.28 196.761442,31.28 C197.401442,31.28 197.849442,31.744 197.849442,32.56 C197.849442,32.672 197.833442,32.832 197.817442,32.944 L197.929442,32.992 C198.521442,31.888 199.449442,31.248 200.297442,31.248 C201.529442,31.248 202.313442,32.352 202.313442,33.792 C202.313442,36.56 200.345442,38.72 198.553442,38.72 C197.721442,38.72 197.081442,38.288 196.809442,37.76 L196.185442,40.112 L197.769442,40.112 L197.481442,41.168 L193.273442,41.168 L193.561442,40.112 L194.713442,40.112 L196.425442,33.728 Z M203.430922,37.408 C203.430922,36.832 203.654922,35.92 203.958922,34.784 L205.574922,28.864 L204.118922,28.864 L204.422922,27.712 L207.350922,27.712 L205.046922,36.256 C204.918922,36.72 204.854922,37.072 204.854922,37.296 C204.854922,37.6 205.030922,37.696 205.206922,37.696 C205.654922,37.696 205.990922,37.056 206.358922,36.048 L207.062922,36.256 C206.422922,38.256 205.638922,38.848 204.790922,38.848 C203.894922,38.848 203.430922,38.304 203.430922,37.408 Z M214.244403,32.8 C214.244403,34.192 212.724403,35.472 209.412403,35.744 C209.396403,35.936 209.380403,36.112 209.380403,36.272 C209.380403,37.52 210.036403,37.952 210.852403,37.952 C211.684403,37.952 212.516403,37.312 213.140403,36.352 L213.796403,36.736 C213.012403,37.968 212.052403,38.848 210.388403,38.848 C208.916403,38.848 207.828403,37.712 207.828403,36 C207.828403,33.568 210.004403,31.248 212.340403,31.248 C213.572403,31.248 214.244403,31.888 214.244403,32.8 Z M212.084403,32.048 C210.884403,32.048 209.956403,33.616 209.572403,35.024 C211.924403,34.72 212.868403,33.904 212.868403,32.832 C212.868403,32.416 212.612403,32.048 212.084403,32.048 Z M220.241883,36.352 C220.241883,37.984 218.913883,38.848 217.425883,38.848 C216.193883,38.848 214.577883,38.304 214.577883,37.04 C214.577883,36.48 214.929883,35.936 215.537883,35.936 C216.049883,35.936 216.337883,36.336 216.337883,36.736 C216.337883,37.152 216.129883,37.472 215.953883,37.6 C216.257883,37.904 216.865883,38.08 217.425883,38.08 C218.241883,38.08 218.817883,37.696 218.817883,36.864 C218.817883,36.256 218.193883,35.952 217.313883,35.568 C216.465883,35.184 215.569883,34.752 215.569883,33.696 C215.569883,32.016 217.137883,31.248 218.369883,31.248 C219.873883,31.248 220.913883,31.92 220.913883,32.848 C220.913883,33.44 220.577883,33.968 219.985883,33.968 C219.537883,33.968 219.201883,33.648 219.201883,33.2 C219.201883,32.896 219.377883,32.528 219.617883,32.352 C219.457883,32.176 218.913883,32 218.385883,32 C217.633883,32 216.993883,32.368 216.993883,33.136 C216.993883,33.76 217.601883,34.064 218.513883,34.464 C219.361883,34.848 220.241883,35.264 220.241883,36.352 Z" id="somebriefvisualdesignsamples" fill="#8E8E93"></path>
                            </g>
                        </g>
                    </g>
                </g>
            </g>
        </g>
    </g>
</svg>