<?xml version="1.0" encoding="UTF-8"?>
<svg width="107px" height="40px" viewBox="0 0 107 40" version="1.1" xmlns="http://www.w3.org/2000/svg" xmlns:xlink="http://www.w3.org/1999/xlink">
    <!-- Generator: Sketch 55.1 (78136) - https://sketchapp.com -->
    <title>Group 25</title>
    <desc>Created with Sketch.</desc>
    <g id="Page-1" stroke="none" stroke-width="1" fill="none" fill-rule="evenodd">
        <g id="Desktop-HD-Copy-11" transform="translate(-383.000000, -3864.000000)" fill-rule="nonzero">
            <g id="Group-18" transform="translate(383.000000, 3864.000000)">
                <g id="Group-25" transform="translate(0.506899, 0.344000)">
                    <path d="M11.5044403,9.984 L11.5044403,16.656 L9.94444026,16.656 L9.94444026,0.336 L14.8164403,0.336 C18.3444403,0.336 20.2644403,2.448 20.2644403,5.208 C20.2644403,7.416 19.0164403,9.144 16.7364403,9.744 L21.0324403,16.656 L19.2804403,16.656 L15.1524403,9.984 L11.5044403,9.984 Z M11.5044403,8.616 L14.7204403,8.616 C17.3844403,8.616 18.6324403,7.296 18.6324403,5.208 C18.6324403,3.096 17.3604403,1.728 14.7204403,1.728 L11.5044403,1.728 L11.5044403,8.616 Z M23.7886604,16.656 L23.7886604,0.336 L33.6286604,0.336 L33.6286604,1.728 L25.3486604,1.728 L25.3486604,7.752 L32.7406604,7.752 L32.7406604,9.12 L25.3486604,9.12 L25.3486604,15.264 L33.9646604,15.264 L33.9646604,16.656 L23.7886604,16.656 Z M35.8568805,13.56 L37.1768805,12.864 C38.0408805,14.496 39.5288805,15.432 41.4488805,15.432 C43.6808805,15.432 45.0008805,14.328 45.0008805,12.624 C45.0008805,10.824 43.8968805,10.032 41.9288805,9.12 L40.6088805,8.496 C38.2568805,7.392 36.8168805,6.312 36.8168805,4.032 C36.8168805,1.704 38.6408805,0.144 41.0888805,0.144 C43.2008805,0.144 44.5928805,0.912 45.6008805,2.544 L44.4008805,3.312 C43.6808805,2.088 42.6248805,1.512 41.1128805,1.512 C39.4568805,1.512 38.3528805,2.544 38.3528805,3.984 C38.3528805,5.544 39.2408805,6.144 41.2328805,7.08 L42.5288805,7.704 C45.1448805,8.928 46.5608805,10.128 46.5608805,12.576 C46.5608805,15.264 44.5208805,16.848 41.4728805,16.848 C38.8088805,16.848 36.9128805,15.552 35.8568805,13.56 Z M55.3651006,16.848 C52.0771006,16.848 49.6051006,14.904 49.6051006,11.112 L49.6051006,0.336 L51.1651006,0.336 L51.1651006,10.992 C51.1651006,13.944 52.8211006,15.432 55.3651006,15.432 C57.9331006,15.432 59.5651006,13.944 59.5651006,10.992 L59.5651006,0.336 L61.1251006,0.336 L61.1251006,11.112 C61.1251006,14.904 58.6531006,16.848 55.3651006,16.848 Z M65.1293208,16.656 L65.1293208,-2.13162821e-14 L65.2253208,-2.13162821e-14 L72.9053208,9.504 L80.5373208,-2.13162821e-14 L80.6573208,-2.13162821e-14 L80.6573208,16.656 L79.1693208,16.656 L79.1693208,3.84 L72.9053208,11.712 L72.8093208,11.712 L66.6173208,3.84 L66.6173208,16.656 L65.1293208,16.656 Z M84.7815409,16.656 L84.7815409,0.336 L94.6215409,0.336 L94.6215409,1.728 L86.3415409,1.728 L86.3415409,7.752 L93.7335409,7.752 L93.7335409,9.12 L86.3415409,9.12 L86.3415409,15.264 L94.9575409,15.264 L94.9575409,16.656 L84.7815409,16.656 Z" id="RESUME" fill="#FF3B30"></path>
                    <path d="M7.792,38.72 L7.52,31.952 L3.616,38.72 L2.08,38.72 L1.424,29.184 L-2.27373675e-13,29.184 L0.256,28.128 L4.928,28.128 L4.672,29.184 L3.104,29.184 L3.488,36.944 L3.552,36.944 L7.44,30.192 L7.408,29.184 L5.904,29.184 L6.16,28.128 L10.928,28.128 L10.672,29.184 L9.008,29.184 L9.2,36.944 L9.264,36.944 L13.456,29.184 L12.112,29.184 L12.368,28.128 L16.16,28.128 L15.904,29.184 L14.8,29.184 L9.328,38.72 L7.792,38.72 Z M20.3654801,38.8 C19.6294801,38.8 19.0694801,38.304 19.0694801,37.36 C19.0694801,35.648 20.1254801,34.176 20.1254801,32.976 C20.1254801,32.56 19.9654801,32.416 19.7094801,32.416 C18.9094801,32.416 17.2614801,33.952 15.9974801,38.656 L14.4134801,38.656 L17.0374801,28.816 L15.5814801,28.816 L15.8854801,27.664 L18.8134801,27.664 L16.8134801,34.544 L16.9094801,34.592 C17.9174801,32.432 19.1974801,31.2 20.2854801,31.2 C21.1334801,31.2 21.6294801,31.952 21.6294801,32.896 C21.6294801,34.192 20.4934801,36.192 20.4934801,37.296 C20.4934801,37.52 20.5734801,37.648 20.7814801,37.648 C21.1494801,37.648 21.5014801,37.008 21.8694801,36 L22.5734801,36.208 C21.9334801,38.208 21.1014801,38.8 20.3654801,38.8 Z M29.7069602,32.752 C29.7069602,34.144 28.1869602,35.424 24.8749602,35.696 C24.8589602,35.888 24.8429602,36.064 24.8429602,36.224 C24.8429602,37.472 25.4989602,37.904 26.3149602,37.904 C27.1469602,37.904 27.9789602,37.264 28.6029602,36.304 L29.2589602,36.688 C28.4749602,37.92 27.5149602,38.8 25.8509602,38.8 C24.3789602,38.8 23.2909602,37.664 23.2909602,35.952 C23.2909602,33.52 25.4669602,31.2 27.8029602,31.2 C29.0349602,31.2 29.7069602,31.84 29.7069602,32.752 Z M27.5469602,32 C26.3469602,32 25.4189602,33.568 25.0349602,34.976 C27.3869602,34.672 28.3309602,33.856 28.3309602,32.784 C28.3309602,32.368 28.0749602,32 27.5469602,32 Z M31.0164403,38.656 L32.4084403,33.424 C32.6484403,32.512 32.6324403,32.208 32.2804403,32.208 C31.8644403,32.208 31.4324403,32.944 30.9524403,33.936 L30.2484403,33.616 C30.9044403,32.112 31.6564403,31.232 32.6324403,31.232 C33.3044403,31.232 33.7364403,31.712 33.7364403,32.704 C33.7364403,33.184 33.6244403,33.792 33.3684403,34.48 L33.5124403,34.528 C34.4404403,32.416 35.2244403,31.2 36.2644403,31.2 C36.8564403,31.2 37.3044403,31.6 37.3044403,32.272 C37.3044403,32.992 36.8404403,33.6 36.2804403,33.6 C35.7844403,33.6 35.4484403,33.28 35.4484403,32.688 C34.9044403,32.928 33.6724403,34.704 32.6004403,38.656 L31.0164403,38.656 Z M43.7499203,32.752 C43.7499203,34.144 42.2299203,35.424 38.9179203,35.696 C38.9019203,35.888 38.8859203,36.064 38.8859203,36.224 C38.8859203,37.472 39.5419203,37.904 40.3579203,37.904 C41.1899203,37.904 42.0219203,37.264 42.6459203,36.304 L43.3019203,36.688 C42.5179203,37.92 41.5579203,38.8 39.8939203,38.8 C38.4219203,38.8 37.3339203,37.664 37.3339203,35.952 C37.3339203,33.52 39.5099203,31.2 41.8459203,31.2 C43.0779203,31.2 43.7499203,31.84 43.7499203,32.752 Z M41.5899203,32 C40.3899203,32 39.4619203,33.568 39.0779203,34.976 C41.4299203,34.672 42.3739203,33.856 42.3739203,32.784 C42.3739203,32.368 42.1179203,32 41.5899203,32 Z M46.5928805,38.656 L46.8328805,37.6 L48.5928805,37.6 L50.6888805,29.184 L48.8968805,29.184 L49.1528805,28.128 L54.3528805,28.128 L54.0968805,29.184 L52.3368805,29.184 L50.2408805,37.6 L52.0328805,37.6 L51.7928805,38.656 L46.5928805,38.656 Z M54.7663606,32.064 L54.6063606,31.456 C55.8383606,31.056 56.5423606,30.48 56.7823606,29.84 L56.7023606,29.776 C56.6223606,29.824 56.5423606,29.856 56.4463606,29.856 C56.0303606,29.856 55.6783606,29.584 55.6783606,29.056 C55.6783606,28.496 56.0943606,27.872 56.7343606,27.872 C57.5023606,27.872 57.8543606,28.464 57.8543606,29.104 C57.8543606,30.256 57.0063606,31.472 54.7663606,32.064 Z M59.6598407,31.216 C60.4758407,31.216 60.8598407,31.744 60.8598407,32.576 C60.8598407,34.128 59.6598407,35.888 59.6598407,36.864 C59.6598407,37.408 60.0278407,37.648 60.6198407,37.648 C62.1238407,37.648 63.2758407,35.168 63.4518407,33.216 C63.3558407,33.264 63.1798407,33.296 63.0838407,33.296 C62.5878407,33.296 62.2358407,32.96 62.2358407,32.384 C62.2358407,31.76 62.6998407,31.168 63.2918407,31.168 C63.9798407,31.168 64.3798407,31.616 64.3798407,32.72 C64.3798407,34.864 62.6998407,38.848 60.1078407,38.848 C58.9398407,38.848 58.1718407,38.144 58.1718407,37.136 C58.1718407,35.872 59.4198407,33.568 59.4198407,32.752 C59.4198407,32.496 59.3558407,32.368 59.1638407,32.368 C58.7478407,32.368 58.4918407,32.784 57.9158407,33.936 L57.2118407,33.616 C57.8678407,32.112 58.6358407,31.216 59.6598407,31.216 Z M71.5133208,32.752 C71.5133208,34.144 69.9933208,35.424 66.6813208,35.696 C66.6653208,35.888 66.6493208,36.064 66.6493208,36.224 C66.6493208,37.472 67.3053208,37.904 68.1213208,37.904 C68.9533208,37.904 69.7853208,37.264 70.4093208,36.304 L71.0653208,36.688 C70.2813208,37.92 69.3213208,38.8 67.6573208,38.8 C66.1853208,38.8 65.0973208,37.664 65.0973208,35.952 C65.0973208,33.52 67.2733208,31.2 69.6093208,31.2 C70.8413208,31.2 71.5133208,31.84 71.5133208,32.752 Z M69.3533208,32 C68.1533208,32 67.2253208,33.568 66.8413208,34.976 C69.1933208,34.672 70.1373208,33.856 70.1373208,32.784 C70.1373208,32.368 69.8813208,32 69.3533208,32 Z M79.5562809,32.288 C78.1802809,32.288 76.9482809,34.848 76.9482809,36.336 C76.9482809,37.392 77.3002809,37.856 78.0522809,37.856 C79.6362809,37.856 80.4842809,35.008 80.4842809,33.76 C80.4842809,32.832 80.2122809,32.288 79.5562809,32.288 Z M79.0922809,27.664 L77.5562809,32.896 L77.6682809,32.944 C78.2602809,31.84 79.1882809,31.2 80.0362809,31.2 C81.3162809,31.2 82.0522809,32.368 82.0522809,33.776 C82.0522809,36.704 79.7322809,38.8 77.7642809,38.8 C76.1322809,38.8 75.4122809,37.808 75.4122809,36.448 C75.4122809,35.824 75.6362809,34.848 75.8602809,34.048 L77.3162809,28.816 L75.8602809,28.816 L76.1642809,27.664 L79.0922809,27.664 Z M89.441761,32.752 C89.441761,34.144 87.921761,35.424 84.609761,35.696 C84.593761,35.888 84.577761,36.064 84.577761,36.224 C84.577761,37.472 85.233761,37.904 86.049761,37.904 C86.881761,37.904 87.713761,37.264 88.337761,36.304 L88.993761,36.688 C88.209761,37.92 87.249761,38.8 85.585761,38.8 C84.113761,38.8 83.025761,37.664 83.025761,35.952 C83.025761,33.52 85.201761,31.2 87.537761,31.2 C88.769761,31.2 89.441761,31.84 89.441761,32.752 Z M87.281761,32 C86.081761,32 85.153761,33.568 84.769761,34.976 C87.121761,34.672 88.065761,33.856 88.065761,32.784 C88.065761,32.368 87.809761,32 87.281761,32 Z M96.5112411,32.752 C96.5112411,34.144 94.9912411,35.424 91.6792411,35.696 C91.6632411,35.888 91.6472411,36.064 91.6472411,36.224 C91.6472411,37.472 92.3032411,37.904 93.1192411,37.904 C93.9512411,37.904 94.7832411,37.264 95.4072411,36.304 L96.0632411,36.688 C95.2792411,37.92 94.3192411,38.8 92.6552411,38.8 C91.1832411,38.8 90.0952411,37.664 90.0952411,35.952 C90.0952411,33.52 92.2712411,31.2 94.6072411,31.2 C95.8392411,31.2 96.5112411,31.84 96.5112411,32.752 Z M94.3512411,32 C93.1512411,32 92.2232411,33.568 91.8392411,34.976 C94.1912411,34.672 95.1352411,33.856 95.1352411,32.784 C95.1352411,32.368 94.8792411,32 94.3512411,32 Z M103.740721,37.296 C103.740721,37.52 103.820721,37.648 104.028721,37.648 C104.396721,37.648 104.748721,37.008 105.116721,36 L105.820721,36.208 C105.180721,38.208 104.348721,38.8 103.612721,38.8 C102.876721,38.8 102.316721,38.304 102.316721,37.36 C102.316721,35.648 103.372721,34.176 103.372721,32.976 C103.372721,32.56 103.212721,32.416 102.956721,32.416 C102.156721,32.416 100.668721,33.952 99.4047212,38.656 L97.8207212,38.656 L99.2127212,33.424 C99.4527212,32.512 99.4367212,32.208 99.0847212,32.208 C98.6687212,32.208 98.2367212,32.944 97.7567212,33.936 L97.0527212,33.616 C97.7087212,32.112 98.4607212,31.232 99.4367212,31.232 C100.108721,31.232 100.540721,31.712 100.540721,32.704 C100.540721,33.184 100.428721,33.792 100.172721,34.48 L100.284721,34.528 C101.292721,32.368 102.444721,31.2 103.532721,31.2 C104.380721,31.2 104.876721,31.952 104.876721,32.896 C104.876721,34.192 103.740721,36.192 103.740721,37.296 Z" id="WhereI’vebeen" fill="#8E8E93"></path>
                </g>
            </g>
        </g>
    </g>
</svg>