<?xml version="1.0" encoding="UTF-8"?>
<svg width="220px" height="296px" viewBox="0 0 220 296" version="1.1" xmlns="http://www.w3.org/2000/svg" xmlns:xlink="http://www.w3.org/1999/xlink">
    <!-- Generator: Sketch 55.1 (78136) - https://sketchapp.com -->
    <title>Group 22</title>
    <desc>Created with Sketch.</desc>
    <g id="Page-1" stroke="none" stroke-width="1" fill="none" fill-rule="evenodd">
        <g id="Desktop-HD-Copy-11" transform="translate(-62.000000, -1074.000000)" fill="#F8CA12" fill-rule="nonzero">
            <g id="Group-9" transform="translate(62.509997, 1074.140000)">
                <g id="Group-22" transform="translate(0.000000, 0.000000)">
                    <path d="M209.266974,203.86 L156.713032,203.86 C151.109298,203.86 146.490003,199.247133 146.490003,193.651196 L146.490003,80.0688036 C146.490003,74.4728668 151.109298,69.86 156.713032,69.86 L209.266974,69.86 C214.870709,69.86 219.490003,74.4728668 219.490003,80.0688036 L219.490003,193.651196 C219.490003,199.247133 214.870709,203.86 209.266974,203.86 Z M156.713032,72.128623 C152.320916,72.128623 148.761787,75.6827991 148.761787,80.0688036 L148.761787,193.651196 C148.761787,198.037201 152.320916,201.591377 156.713032,201.591377 L209.266974,201.591377 C213.65909,201.591377 217.218219,198.037201 217.218219,193.651196 L217.218219,80.0688036 C217.218219,75.6827991 213.65909,72.128623 209.266974,72.128623 C209.266974,72.128623 156.713032,72.128623 156.713032,72.128623 Z M182.990003,197.96158 C178.825065,197.96158 175.417389,194.558646 175.417389,190.399503 C175.417389,186.240361 178.825065,182.837427 182.990003,182.837427 C187.154941,182.837427 190.562617,186.240361 190.562617,190.399503 C190.562617,194.558646 187.154941,197.96158 182.990003,197.96158 Z M182.990003,185.10605 C180.036684,185.10605 177.689173,187.450293 177.689173,190.399503 C177.689173,193.348713 180.036684,195.692957 182.990003,195.692957 C185.943323,195.692957 188.290833,193.348713 188.290833,190.399503 C188.290833,187.450293 185.943323,185.10605 182.990003,185.10605 Z M194.348924,79.3882167 C194.348924,78.7832506 193.818841,78.2539052 193.213032,78.2539052 L172.766974,78.2539052 C172.161165,78.2539052 171.631082,78.7832506 171.631082,79.3882167 C171.631082,79.9931828 172.161165,80.5225282 172.766974,80.5225282 L193.213032,80.5225282 C193.818841,80.5225282 194.348924,79.9931828 194.348924,79.3882167 Z M166.633157,78.0270429 C165.951621,78.0270429 165.270086,78.632009 165.270086,79.3882167 C165.270086,80.1444244 165.875895,80.7493905 166.633157,80.7493905 C167.314692,80.7493905 167.996227,80.1444244 167.996227,79.3882167 C167.996227,78.632009 167.466144,78.0270429 166.633157,78.0270429 Z" id="Shape"></path>
                    <path d="M54.9881915,242.093399 L6.99181494,242.093399 C3.13688589,242.093399 2.77111667e-13,238.940729 2.77111667e-13,235.065404 L2.77111667e-13,205.722956 C2.77111667e-13,201.846003 3.13688589,198.693333 6.99181494,198.693333 L54.9881914,198.693333 C58.8431204,198.693333 61.9800063,201.846003 61.9800063,205.722956 L61.9800063,235.065404 C61.9800063,238.940729 58.8431206,242.093399 54.9881915,242.093399 Z M6.99181494,200.36 C4.05083269,200.36 1.65789474,202.765599 1.65789474,205.722956 L1.65789474,235.065404 C1.65789474,238.021133 4.05083269,240.426732 6.99181494,240.426732 L54.9881914,240.426732 C57.9291736,240.426732 60.3221116,238.021133 60.3221116,235.065404 L60.3221116,205.722956 C60.3221116,202.765599 57.9291736,200.36 54.9881915,200.36 L6.99181494,200.36 Z" id="Shape"></path>
                    <path d="M35.8770689,225.099583 C35.6236895,225.099583 35.3735482,224.984023 35.2108348,224.764297 L27.4030248,214.212539 C27.1302169,213.843073 27.2063118,213.320612 27.5738332,213.045547 C27.9397357,212.770482 28.4602565,212.846979 28.7338738,213.216445 L36.5416838,223.768203 C36.8144917,224.137669 36.7383968,224.66013 36.3708753,224.935195 C36.2227335,225.045872 36.0486869,225.099583 35.8770689,225.099583 Z" id="Path"></path>
                    <path d="M41.2708935,225.16957 C41.0401805,225.16957 40.8110867,225.073542 40.6467545,224.88474 C40.3456135,224.53806 40.3804228,224.012344 40.7252778,223.709609 L48.9459424,216.484675 C49.288369,216.18194 49.8129372,216.214492 50.1156972,216.5628 C50.4168382,216.909479 50.3820289,217.435195 50.0371739,217.73793 L41.8165093,224.962865 C41.6594626,225.101211 41.465178,225.16957 41.2708935,225.16957 Z" id="Path"></path>
                    <path d="M13.4185857,224.770807 C13.2259203,224.770807 13.0316357,224.704075 12.8753985,224.567357 C12.5297339,224.264622 12.4924961,223.738906 12.7928276,223.390599 L21.8934392,212.856745 C22.1937706,212.510065 22.7175294,212.474258 23.0623845,212.773737 C23.4080491,213.076471 23.4452869,213.602187 23.1449554,213.950495 L14.0443438,224.484349 C13.880821,224.673151 13.650108,224.770807 13.4185857,224.770807 Z" id="Path"></path>
                    <path d="M25.4148464,215.812474 C23.963379,215.812474 22.6220062,215.083307 21.8254395,213.859349 C21.3729184,213.13181 21.1381579,212.324518 21.1381579,211.513971 C21.1381579,209.14418 23.0567178,207.215469 25.4148462,207.215469 C27.7729747,207.215469 29.6907252,209.14418 29.6907252,211.513971 C29.6907252,212.519831 29.3507273,213.465469 28.7071598,214.246719 C27.8927838,215.241185 26.6922672,215.812474 25.4148464,215.812474 Z M25.4148464,208.882135 C23.9706646,208.882135 22.7960528,210.062148 22.7960528,211.513971 C22.7960528,212.020156 22.9393377,212.50681 23.2226692,212.962539 C24.1309495,214.355768 26.3522693,214.502253 27.42812,213.185521 C27.8247843,212.70375 28.0328306,212.127578 28.0328306,211.513971 C28.0328306,210.062148 26.8582187,208.882135 25.4148464,208.882135 Z" id="Shape"></path>
                    <path d="M38.5476719,230.765273 C36.1895433,230.765273 34.2717929,228.836562 34.2717929,226.466771 C34.2717929,225.451146 34.6053148,224.507135 35.23593,223.737279 C36.0729725,222.73793 37.2775367,222.168268 38.5476719,222.168268 C39.8704259,222.168268 41.1008946,222.770482 41.9225562,223.821914 C42.5110765,224.565729 42.8235507,225.48207 42.8235507,226.466771 C42.8235507,228.836562 40.9058004,230.765273 38.5476719,230.765273 Z M38.5476719,223.834935 C37.7681053,223.834935 37.0257763,224.188125 36.5101128,224.803359 C36.1328769,225.263971 35.9296877,225.841771 35.9296877,226.466771 C35.9296877,227.918594 37.1042996,229.098607 38.5476719,229.098607 C39.9910442,229.098607 41.1656561,227.918594 41.1656561,226.466771 C41.1656561,225.853164 40.9827048,225.311172 40.6216594,224.853815 C40.114091,224.206029 39.3588098,223.834935 38.5476719,223.834935 Z" id="Shape"></path>
                    <path d="M52.2147797,219.277643 C50.8928352,219.277643 49.6623665,218.67543 48.8407047,217.627252 C48.256232,216.859023 47.9389007,215.921523 47.9389007,214.97914 C47.9389007,212.609349 49.856651,210.680638 52.2147797,210.680638 C54.5729083,210.680638 56.4906586,212.609349 56.4906586,214.97914 C56.4906586,216.554661 55.6358067,217.991836 54.2596245,218.730768 C53.6848659,219.080703 52.9643941,219.277643 52.2147797,219.277643 Z M52.2147797,212.347305 C50.7714074,212.347305 49.5967954,213.527318 49.5967954,214.979141 C49.5967954,215.558568 49.7935084,216.136367 50.1505064,216.605117 C50.9219779,217.593073 52.4422544,217.884414 53.4412008,217.2822 C54.3138622,216.811823 54.8327639,215.937799 54.8327639,214.979141 C54.8327639,213.527318 53.6581519,212.347305 52.2147797,212.347305 Z" id="Shape"></path>
                    <path d="M10.5407459,230.107721 C8.18261723,230.107721 6.26486689,228.17901 6.26486689,225.809219 C6.26486689,224.129531 7.24843234,222.599583 8.77032798,221.912734 C9.26170593,221.653945 9.87208326,221.510716 10.5407459,221.510716 C11.9970704,221.510716 13.3700145,222.272435 14.1236766,223.499648 C14.5705311,224.160456 14.8166248,224.969375 14.8166248,225.809219 C14.8166248,228.17901 12.8988745,230.107721 10.5407459,230.107721 Z M10.5407459,223.177383 C10.141653,223.177383 9.78951231,223.255508 9.49403783,223.411758 C8.52261513,223.851211 7.92276163,224.785456 7.92276163,225.809219 C7.92276163,227.261042 9.09737358,228.441055 10.5407459,228.441055 C11.9841181,228.441055 13.1587301,227.261042 13.1587301,225.809219 C13.1587301,225.304661 13.0113976,224.819635 12.7321137,224.404596 C12.2593545,223.636367 11.4263596,223.177383 10.5407459,223.177383 Z" id="Shape"></path>
                    <path d="M52.6648722,263.677057 C49.809699,263.677057 47.4863796,261.341445 47.4863796,258.470352 C47.4863796,255.600886 49.809699,253.265274 52.6648722,253.265274 C55.520855,253.265274 57.8441742,255.600886 57.8441742,258.470352 C57.8441742,261.341445 55.5208549,263.677057 52.6648722,263.677057 Z M52.6648722,254.93194 C50.7236459,254.93194 49.1442744,256.518854 49.1442744,258.470352 C49.1442744,260.421849 50.7236458,262.010391 52.6648722,262.010391 C54.6069081,262.010391 56.1862794,260.421849 56.1862794,258.470352 C56.1862794,256.518854 54.6069081,254.93194 52.6648722,254.93194 Z" id="Shape"></path>
                    <path d="M60.1909696,277.026667 L45.1395844,277.026667 C44.6813967,277.026667 44.310637,276.653945 44.310637,276.193333 L44.310637,272.415664 C44.310637,269.546198 46.8614311,267.210586 49.9966979,267.210586 L55.3338561,267.210586 C58.4691229,267.210586 61.019917,269.546198 61.019917,272.415664 L61.019917,276.193333 C61.019917,276.653945 60.6491572,277.026667 60.1909696,277.026667 Z M45.9685318,275.36 L59.3620222,275.36 L59.3620222,272.415664 C59.3620222,270.464167 57.5551759,268.877253 55.3338561,268.877253 L49.9966979,268.877253 C47.7753779,268.877253 45.9685318,270.464167 45.9685318,272.415664 L45.9685318,275.36 Z" id="Shape"></path>
                    <path d="M30.8912419,263.677057 C28.0352591,263.677057 25.71194,261.341445 25.71194,258.470352 C25.71194,255.600886 28.0352593,253.265274 30.8912419,253.265274 C33.7464152,253.265274 36.0697345,255.600886 36.0697345,258.470352 C36.0697345,261.341445 33.7464152,263.677057 30.8912419,263.677057 Z M30.8912419,254.93194 C28.9492061,254.93194 27.3698347,256.518854 27.3698347,258.470352 C27.3698347,260.421849 28.9492061,262.010391 30.8912419,262.010391 C32.8324682,262.010391 34.4118398,260.421849 34.4118398,258.470352 C34.4118398,256.518854 32.8324682,254.93194 30.8912419,254.93194 Z" id="Shape"></path>
                    <path d="M38.4165298,277.026667 L23.3651446,277.026667 C22.9069568,277.026667 22.5361972,276.653945 22.5361972,276.193333 L22.5361972,272.415664 C22.5361972,269.546198 25.0869913,267.210586 28.222258,267.210586 L33.5602258,267.210586 C36.6946831,267.210586 39.2454771,269.546198 39.2454771,272.415664 L39.2454771,276.193333 C39.2454771,276.653945 38.8747175,277.026667 38.4165298,277.026667 Z M24.1940919,275.36 L37.5875824,275.36 L37.5875824,272.415664 C37.5875824,270.464167 35.7807361,268.877253 33.5602258,268.877253 L28.222258,268.877253 C26.0009381,268.877253 24.1940919,270.464167 24.1940919,272.415664 L24.1940919,275.36 Z" id="Shape"></path>
                    <path d="M9.11680212,263.677057 C6.26162886,263.677057 3.93830955,261.341445 3.93830955,258.470352 C3.93830955,255.600886 6.26162886,253.265274 9.11680212,253.265274 C11.9727849,253.265274 14.2961041,255.600886 14.2961041,258.470352 C14.2961041,261.341445 11.9727849,263.677057 9.11680212,263.677057 Z M9.11680212,254.93194 C7.17557582,254.93194 5.59620429,256.518854 5.59620429,258.470352 C5.59620429,260.421849 7.17557566,262.010391 9.11680212,262.010391 C11.058838,262.010391 12.6382093,260.421849 12.6382093,258.470352 C12.6382093,256.518854 11.058838,254.93194 9.11680212,254.93194 Z" id="Shape"></path>
                    <path d="M16.6428995,277.026667 L1.59151429,277.026667 C1.13332656,277.026667 0.762566921,276.653945 0.762566921,276.193333 L0.762566921,272.415664 C0.762566921,269.546198 3.31336099,267.210586 6.44862778,267.210586 L11.785786,267.210586 C14.9210528,267.210586 17.4718469,269.546198 17.4718469,272.415664 L17.4718469,276.193333 C17.4718469,276.653945 17.1010872,277.026667 16.6428995,277.026667 Z M2.42046166,275.36 L15.8139521,275.36 L15.8139521,272.415664 C15.8139521,270.464167 14.0071058,268.877253 11.785786,268.877253 L6.44862778,268.877253 C4.22730779,268.877253 2.42046166,270.464167 2.42046166,272.415664 L2.42046166,275.36 Z" id="Shape"></path>
                    <path d="M52.667303,248.86 C52.2125683,248.86 51.8446028,248.475557 51.8446028,248.000459 C51.8446028,242.042429 45.8816332,241.579082 44.0538567,241.579082 L18.9261498,241.579082 C17.0983735,241.579082 11.1354037,242.042429 11.1354037,248.000459 C11.1354037,248.475557 10.7674382,248.86 10.3127034,248.86 C9.85796873,248.86 9.49000323,248.475557 9.49000323,248.000459 C9.49000323,242.979194 13.105385,239.86 18.9261498,239.86 L44.0538567,239.86 C49.8746215,239.86 53.4900032,242.979194 53.4900032,248.000459 C53.4900032,248.475557 53.1220377,248.86 52.667303,248.86 Z" id="Path"></path>
                    <path d="M31.4900032,248.86 C30.9372688,248.86 30.4900032,248.506809 30.4900032,248.070334 L30.4900032,241.649666 C30.4900032,241.213191 30.9372688,240.86 31.4900032,240.86 C32.0427376,240.86 32.4900032,241.213191 32.4900032,241.649666 L32.4900032,248.070334 C32.4900032,248.506809 32.0427376,248.86 31.4900032,248.86 Z" id="Path"></path>
                    <rect id="Rectangle" x="16.9549155" y="101.024912" width="13.4438596" height="2.55263158"></rect>
                    <rect id="Rectangle" x="33.4619331" y="101.024912" width="2.55263158" height="2.55263158"></rect>
                    <rect id="Rectangle" x="38.9075471" y="101.024912" width="2.55263158" height="2.55263158"></rect>
                    <rect id="Rectangle" x="16.9549155" y="108.852982" width="8.16842105" height="2.55263158"></rect>
                    <rect id="Rectangle" x="28.1864945" y="108.852982" width="4.93508772" height="2.55263158"></rect>
                    <rect id="Rectangle" x="36.3549155" y="108.852982" width="18.8894737" height="2.55263158"></rect>
                    <rect id="Rectangle" x="71.070705" y="140.675789" width="9.52982456" height="2.55263158"></rect>
                    <rect id="Rectangle" x="49.4584243" y="140.675789" width="18.5491228" height="2.55263158"></rect>
                    <rect id="Rectangle" x="16.9549155" y="140.675789" width="29.1" height="2.55263158"></rect>
                    <rect id="Rectangle" x="74.3040383" y="124.679298" width="2.55263158" height="2.55263158"></rect>
                    <rect id="Rectangle" x="79.7496524" y="124.679298" width="2.55263158" height="2.55263158"></rect>
                    <rect id="Rectangle" x="45.8847401" y="124.679298" width="25.0157895" height="2.55263158"></rect>
                    <rect id="Rectangle" x="33.1215822" y="124.679298" width="9.87017544" height="2.55263158"></rect>
                    <rect id="Rectangle" x="85.3654418" y="124.679298" width="16.677193" height="2.55263158"></rect>
                    <rect id="Rectangle" x="33.1215822" y="116.851228" width="12.9333333" height="2.55263158"></rect>
                    <rect id="Rectangle" x="70.3900032" y="116.851228" width="31.4824561" height="2.55263158"></rect>
                    <rect id="Rectangle" x="48.947898" y="116.851228" width="2.55263158" height="2.55263158"></rect>
                    <rect id="Rectangle" x="54.393512" y="116.851228" width="2.55263158" height="2.55263158"></rect>
                    <rect id="Rectangle" x="59.839126" y="116.851228" width="2.55263158" height="2.55263158"></rect>
                    <rect id="Rectangle" x="65.2847401" y="116.851228" width="2.55263158" height="2.55263158"></rect>
                    <rect id="Rectangle" x="33.4619331" y="132.677544" width="19.2298246" height="2.55263158"></rect>
                    <rect id="Rectangle" x="55.7549155" y="132.677544" width="10.5508772" height="2.55263158"></rect>
                    <rect id="Rectangle" x="22.4005295" y="132.677544" width="2.55263158" height="2.55263158"></rect>
                    <rect id="Rectangle" x="16.9549155" y="132.677544" width="2.55263158" height="2.55263158"></rect>
                    <rect id="Rectangle" x="27.8461436" y="132.677544" width="2.55263158" height="2.55263158"></rect>
                    <path d="M110.551407,77.8810526 L8.44614358,77.8810526 C5.893512,77.8810526 3.85140674,79.9231579 3.85140674,82.4757895 L3.85140674,155.991579 C3.85140674,158.544211 5.893512,160.756491 8.61631902,160.756491 L44.5233366,160.756491 L44.5233366,170.456491 L36.8654418,170.456491 L36.8654418,173.009123 L82.4724594,173.009123 L82.4724594,170.456491 L74.8145646,170.456491 L74.8145646,160.756491 L110.721582,160.756491 C113.274214,160.756491 115.486494,158.714386 115.486494,155.991579 L115.486494,82.4757895 C115.316319,79.9231579 113.104038,77.8810526 110.551407,77.8810526 Z M72.0917576,170.286316 L46.9057927,170.286316 L46.9057927,160.586316 L72.0917576,160.586316 L72.0917576,170.286316 L72.0917576,170.286316 Z M112.763687,155.991579 C112.763687,157.182807 111.742635,158.20386 110.551407,158.20386 L8.44614358,158.20386 C7.25491551,158.20386 6.40403832,157.182807 6.40403832,155.991579 L6.40403832,152.758246 L112.763687,152.758246 L112.763687,155.991579 Z M112.763687,150.205614 L6.40403832,150.205614 L6.40403832,92.6863158 L112.763687,92.6863158 L112.763687,150.205614 Z M112.763687,90.1336842 L6.40403832,90.1336842 L6.40403832,82.4757895 C6.40403832,81.2845614 7.42509095,80.2635088 8.44614358,80.2635088 L110.551407,80.2635088 C111.742635,80.2635088 112.763687,81.2845614 112.763687,82.4757895 L112.763687,90.1336842 Z" id="Shape"></path>
                    <rect id="Rectangle" x="97.1075471" y="84.3477193" width="2.55263158" height="2.55263158"></rect>
                    <rect id="Rectangle" x="103.574214" y="84.3477193" width="2.55263158" height="2.55263158"></rect>
                    <rect id="Rectangle" x="90.6408804" y="84.3477193" width="2.55263158" height="2.55263158"></rect>
                    <rect id="Rectangle" x="13.8917576" y="84.3477193" width="68.2403509" height="2.55263158"></rect>
                    <path d="M163.580019,1.95399252e-13 L97.6981442,1.95399252e-13 C92.8963653,0.00705626256 89.005513,3.8979086 88.9984567,8.6996875 L88.9984567,9.0328125 C89.1413158,9.60282704 89.6536253,10.0025843 90.2412692,10.0025843 C90.8289131,10.0025843 91.3412226,9.60282704 91.4840817,9.0328125 L91.4840817,8.6996875 C91.49113,5.27067931 94.269136,2.49267334 97.6981442,2.485625 L163.580019,2.485625 C167.009027,2.49267334 169.787033,5.27067931 169.794082,8.6996875 L169.794082,54.0175 C169.787033,57.4465082 167.009027,60.2245142 163.580019,60.2315625 L157.058457,60.2315625 C156.488442,60.3744216 156.088685,60.8867311 156.088685,61.474375 C156.088685,62.0620189 156.488442,62.5743284 157.058457,62.7171875 L163.580019,62.7171875 C168.381798,62.7101312 172.27265,58.8192789 172.279707,54.0175 L172.279707,8.6996875 C172.27265,3.8979086 168.381798,0.00705626256 163.580019,1.95399252e-13 Z" id="Path"></path>
                    <path d="M151.933457,60.3853125 C145.236716,61.1852012 139.307652,65.0920229 135.930644,70.93 L131.715332,78.2075 C131.479321,78.5728776 131.074055,78.7935612 130.639082,78.7935612 C130.204108,78.7935612 129.798842,78.5728776 129.562832,78.2075 L125.347519,70.93 C121.522075,64.3146866 114.462395,60.2380388 106.820644,60.2315625 L97.6981442,60.2315625 C94.269136,60.2245142 91.49113,57.4465082 91.4840817,54.0175 L91.4840817,14.0040625 C91.6137923,13.4865111 91.4091888,12.9427512 90.9704739,12.6390844 C90.5317591,12.3354176 89.9507793,12.3354176 89.5120645,12.6390844 C89.0733496,12.9427512 88.8687461,13.4865111 88.9984567,14.0040625 L88.9984567,54.0175 C89.005513,58.8192789 92.8963653,62.7101312 97.6981442,62.7171875 L106.820644,62.7171875 C113.574408,62.7236217 119.813569,66.3265179 123.195019,72.1728125 L127.410332,79.4503125 C128.082752,80.5790425 129.299615,81.2705476 130.613457,81.2705476 C131.927298,81.2705476 133.144162,80.5790425 133.816582,79.4503125 L138.031894,72.16 C141.007839,67.0155088 146.226335,63.5665573 152.125644,62.8453125 C152.65304,62.9085404 153.16476,62.6397935 153.412067,62.1697043 C153.659373,61.6996152 153.590977,61.125678 153.240123,60.7268722 C152.889269,60.3280664 152.328724,60.1871024 151.830957,60.3725 L151.933457,60.3853125 Z" id="Path"></path>
                    <path d="M135.456582,36.618125 L138.826269,36.618125 C140.885428,36.618125 142.554707,34.9488467 142.554707,32.8896875 L142.554707,14.0040625 C142.554707,11.9449033 140.885428,10.275625 138.826269,10.275625 L122.451894,10.275625 C120.392735,10.275625 118.723457,11.9449033 118.723457,14.0040625 L118.723457,22.3321875 C118.723457,24.3913467 120.392735,26.060625 122.451894,26.060625 L124.630019,26.060625 C126.689178,26.060625 128.358457,24.3913467 128.358457,22.3321875 L128.358457,20.320625 L133.022207,20.320625 L133.022207,27.11125 L129.562832,27.11125 C127.503673,27.11125 125.834394,28.7805283 125.834394,30.8396875 L125.834394,38.4246875 C125.862346,40.4588254 127.515701,42.0950762 129.550019,42.101875 L131.728144,42.101875 C133.787303,42.101875 135.456582,40.4325967 135.456582,38.3734375 L135.456582,36.618125 Z M132.970957,36.618125 L132.970957,38.3990625 C132.970957,39.1066773 132.397322,39.6803125 131.689707,39.6803125 L129.511582,39.6803125 C128.803967,39.6803125 128.230332,39.1066773 128.230332,38.3990625 L128.230332,30.826875 C128.230332,30.1192602 128.803967,29.545625 129.511582,29.545625 L132.970957,29.545625 C134.343729,29.545625 135.456582,28.4327728 135.456582,27.06 L135.456582,20.320625 C135.456582,18.9478522 134.343729,17.835 132.970957,17.835 L128.358457,17.835 C127.697011,17.8315904 127.061486,18.0919621 126.592566,18.5584772 C126.123646,19.0249924 125.86001,19.6591703 125.860019,20.320625 L125.860019,22.3321875 C125.860019,23.0398023 125.286384,23.6134375 124.578769,23.6134375 L122.400644,23.6134375 C121.693029,23.6134375 121.119394,23.0398023 121.119394,22.3321875 L121.119394,14.0040625 C121.119394,13.2964477 121.693029,12.7228125 122.400644,12.7228125 L138.826269,12.7228125 C139.533884,12.7228125 140.107519,13.2964477 140.107519,14.0040625 L140.107519,32.8896875 C140.107519,33.5973023 139.533884,34.1709375 138.826269,34.1709375 L135.456582,34.1709375 C134.098681,34.1707751 132.991955,35.2603863 132.970957,36.618125 L132.970957,36.618125 Z" id="Shape"></path>
                    <path d="M131.728144,44.3184375 L129.550019,44.3184375 C127.49086,44.3184375 125.821582,45.9877158 125.821582,48.046875 L125.821582,50.225 C125.821582,52.2841592 127.49086,53.9534375 129.550019,53.9534375 L131.728144,53.9534375 C133.787303,53.9534375 135.456582,52.2841592 135.456582,50.225 L135.456582,48.046875 C135.456582,45.9877158 133.787303,44.3184375 131.728144,44.3184375 L131.728144,44.3184375 Z M133.009394,50.225 C133.009394,50.9326148 132.435759,51.50625 131.728144,51.50625 L129.550019,51.50625 C128.842404,51.50625 128.268769,50.9326148 128.268769,50.225 L128.268769,48.046875 C128.268769,47.3392602 128.842404,46.765625 129.550019,46.765625 L131.728144,46.765625 C132.435759,46.765625 133.009394,47.3392602 133.009394,48.046875 L133.009394,50.225 Z" id="Shape"></path>
                    <path d="M143.277003,278.26 C143.557003,277.915 143.557003,277.422 143.278003,277.077 C142.717003,276.384 129.345003,260.107 112.490003,260.107 C95.6250032,260.107 82.2620032,276.384 81.7020032,277.077 C81.4230032,277.421 81.4230032,277.914 81.7020032,278.259 C82.2620032,278.951 95.6250032,295.208 112.490003,295.208 C129.345003,295.208 142.717003,278.952 143.277003,278.26 Z M112.490003,293.329 C98.2880032,293.329 86.2430032,280.589 83.6690032,277.667 C86.2400032,274.742 98.2730032,261.986 112.490003,261.986 C126.683003,261.986 138.735003,274.743 141.311003,277.668 C138.737003,280.591 126.699003,293.329 112.490003,293.329 Z" id="Shape"></path>
                    <path d="M112.487003,266.255 C106.203003,266.255 101.090003,271.37 101.090003,277.657 C101.090003,283.945 106.202003,289.06 112.487003,289.06 C118.774003,289.06 123.890003,283.945 123.890003,277.657 C123.890003,271.37 118.774003,266.255 112.487003,266.255 Z M112.487003,287.182 C107.239003,287.182 102.969003,282.909 102.969003,277.658 C102.969003,272.407 107.239003,268.134 112.487003,268.134 C117.739003,268.134 122.011003,272.406 122.011003,277.658 C122.011003,282.91 117.739003,287.182 112.487003,287.182 Z" id="Shape"></path>
                    <path d="M112.487003,273.564 C113.360003,273.564 114.070003,274.271 114.070003,275.141 C114.070003,275.66 114.490003,276.08 115.009003,276.08 C115.528003,276.08 115.948003,275.659 115.948003,275.141 C115.948003,273.563 114.876003,272.243 113.425003,271.831 L113.425003,271.25 C113.425003,270.731 113.005003,270.311 112.486003,270.311 C111.967003,270.311 111.547003,270.732 111.547003,271.25 L111.547003,271.832 C110.100003,272.244 109.031003,273.564 109.031003,275.141 C109.031003,277.046 110.581003,278.596 112.486003,278.596 C113.359003,278.596 114.069003,279.303 114.069003,280.173 C114.069003,281.043 113.359003,281.75 112.486003,281.75 C111.616003,281.75 110.909003,281.043 110.909003,280.173 C110.909003,279.654 110.489003,279.234 109.970003,279.234 C109.451003,279.234 109.031003,279.655 109.031003,280.173 C109.031003,281.75 110.100003,283.07 111.547003,283.482 L111.547003,284.064 C111.547003,284.583 111.967003,285.003 112.486003,285.003 C113.005003,285.003 113.425003,284.582 113.425003,284.064 L113.425003,283.482 C114.876003,283.07 115.948003,281.75 115.948003,280.172 C115.948003,278.267 114.395003,276.717 112.486003,276.717 C111.616003,276.717 110.909003,276.01 110.909003,275.14 C110.909003,274.27 111.618003,273.564 112.487003,273.564 Z" id="Path"></path>
                    <path d="M144.223003,271.134 C143.049003,269.93 141.619003,268.558 139.970003,267.138 L141.283003,265.68 C141.630003,265.294 141.599003,264.7 141.213003,264.353 C140.830003,264.007 140.233003,264.036 139.887003,264.422 L138.527003,265.932 C137.784003,265.33 137.006003,264.725 136.190003,264.127 L137.368003,262.588 C137.684003,262.176 137.605003,261.587 137.193003,261.271 C136.781003,260.956 136.191003,261.035 135.877003,261.447 L134.658003,263.04 C133.854003,262.49 133.019003,261.951 132.158003,261.428 L133.181003,259.803 C133.458003,259.364 133.326003,258.784 132.887003,258.507 C132.448003,258.233 131.868003,258.362 131.592003,258.801 L130.535003,260.48 C129.674003,260.001 128.786003,259.545 127.877003,259.112 L128.712003,257.404 C128.939003,256.938 128.747003,256.375 128.281003,256.147 C127.815003,255.921 127.253003,256.113 127.024003,256.578 L126.164003,258.337 C125.134003,257.901 124.076003,257.505 122.995003,257.15 L123.594003,255.32 C123.755003,254.827 123.487003,254.296 122.994003,254.135 C122.498003,253.971 121.969003,254.243 121.809003,254.735 L121.195003,256.609 C120.238003,256.348 119.263003,256.127 118.272003,255.946 L118.593003,254.058 C118.680003,253.547 118.336003,253.061 117.825003,252.974 C117.318003,252.887 116.829003,253.232 116.742003,253.742 L116.416003,255.655 C115.435003,255.533 114.439003,255.459 113.430003,255.429 L113.430003,253.45 C113.430003,252.931 113.010003,252.511 112.491003,252.511 C111.972003,252.511 111.552003,252.932 111.552003,253.45 L111.552003,255.429 C110.544003,255.459 109.548003,255.533 108.567003,255.655 L108.242003,253.743 C108.155003,253.232 107.671003,252.888 107.158003,252.974 C106.647003,253.061 106.303003,253.546 106.389003,254.057 L106.710003,255.945 C105.718003,256.126 104.742003,256.348 103.785003,256.609 L103.163003,254.732 C103.000003,254.239 102.469003,253.971 101.976003,254.136 C101.483003,254.299 101.216003,254.83 101.380003,255.323 L101.985003,257.15 C100.902003,257.505 99.8420032,257.901 98.8100032,258.339 L97.9490032,256.579 C97.7220032,256.113 97.1590032,255.921 96.6920032,256.148 C96.2260032,256.376 96.0330032,256.939 96.2610032,257.405 L97.0980032,259.115 C96.1920032,259.546 95.3060032,260.001 94.4470032,260.479 L93.3900032,258.802 C93.1160032,258.364 92.5370032,258.232 92.0950032,258.508 C91.6570032,258.785 91.5240032,259.364 91.8010032,259.804 L92.8230032,261.426 C91.9610032,261.949 91.1260032,262.488 90.3230032,263.038 L89.1060032,261.447 C88.7920032,261.036 88.2020032,260.956 87.7900032,261.271 C87.3780032,261.587 87.2990032,262.176 87.6150032,262.588 L88.7900032,264.126 C87.9720032,264.726 87.1920032,265.332 86.4480032,265.936 L85.0840032,264.424 C84.7350032,264.037 84.1420032,264.008 83.7570032,264.355 C83.3720032,264.702 83.3410032,265.296 83.6880032,265.681 L85.0050032,267.142 C83.3580032,268.56 81.9300032,269.932 80.7570032,271.135 C80.3950032,271.507 80.4020032,272.101 80.7740032,272.463 C81.1520032,272.829 81.7460032,272.813 82.1020032,272.446 C86.5390032,267.89 98.3800032,257.299 112.472003,257.29 C112.478003,257.29 112.484003,257.294 112.490003,257.294 C112.497003,257.294 112.502003,257.29 112.508003,257.29 C126.591003,257.299 138.437003,267.891 142.878003,272.446 C143.240003,272.818 143.837003,272.825 144.206003,272.463 C144.578003,272.1 144.585003,271.506 144.223003,271.134 Z" id="Path"></path>
                    <path d="M106.490003,241.86 C88.8451336,241.86 74.4900032,227.504988 74.4900032,209.859737 C74.4900032,192.215012 88.8451336,177.86 106.490003,177.86 C124.134873,177.86 138.490003,192.215012 138.490003,209.859737 C138.490003,227.504988 124.134873,241.86 106.490003,241.86 Z M114.676321,221.29143 L97.3183454,224.973478 L97.9732433,228.060809 L115.331219,224.378761 L114.676321,221.29143 Z M123.990003,213.86 C126.475285,213.86 128.490003,211.845281 128.490003,209.36 C128.490003,206.874719 126.475285,204.86 123.990003,204.86 C121.504722,204.86 119.490003,206.874719 119.490003,209.36 C119.490003,211.845281 121.504722,213.86 123.990003,213.86 Z M87.9900032,213.86 C90.4752846,213.86 92.4900032,211.845281 92.4900032,209.36 C92.4900032,206.874719 90.4752846,204.86 87.9900032,204.86 C85.5047219,204.86 83.4900032,206.874719 83.4900032,209.36 C83.4900032,211.845281 85.5047219,213.86 87.9900032,213.86 Z" id="Path-3"></path>
                    <path d="M186.630965,245.763846 L177.733657,245.763846 C175.867301,245.765754 174.354796,247.278259 174.352888,249.144615 L174.352888,258.044231 C174.354796,259.910587 175.867301,261.423092 177.733657,261.425 L186.630965,261.425 C188.497321,261.423092 190.009826,259.910587 190.011734,258.044231 L190.011734,249.146923 C190.011098,247.279666 188.498221,245.765756 186.630965,245.763846 L186.630965,245.763846 Z M188.586157,258.044231 C188.583935,259.124407 187.708833,259.999509 186.628657,260.001731 L177.733657,260.001731 C176.654383,259.998241 175.780681,259.123509 175.778465,258.044231 L175.778465,249.146923 C175.780686,248.066747 176.655789,247.191645 177.735965,247.189423 L186.630965,247.189423 C187.710239,247.192913 188.583941,248.067645 188.586157,249.146923 L188.586157,258.044231 Z" id="Shape"></path>
                    <path d="M206.204811,245.763846 L197.307503,245.763846 C195.441147,245.765754 193.928642,247.278259 193.926734,249.144615 L193.926734,258.044231 C193.928642,259.910587 195.441147,261.423092 197.307503,261.425 L206.204811,261.425 C208.071167,261.423092 209.583672,259.910587 209.58558,258.044231 L209.58558,249.146923 C209.584944,247.279666 208.072068,245.765756 206.204811,245.763846 Z M208.162888,258.041923 C208.160665,259.122324 207.285212,259.997519 206.204811,259.999423 L197.307503,259.999423 C196.227327,259.997201 195.352225,259.122099 195.350003,258.041923 L195.350003,249.146923 C195.352225,248.066747 196.227327,247.191645 197.307503,247.189423 L206.204811,247.189423 C207.285212,247.191327 208.160665,248.066523 208.162888,249.146923 L208.162888,258.041923 Z" id="Shape"></path>
                    <path d="M167.057119,245.763846 L158.159811,245.763846 C156.293455,245.765754 154.78095,247.278259 154.779042,249.144615 L154.779042,258.044231 C154.78095,259.910587 156.293455,261.423092 158.159811,261.425 L167.057119,261.425 C168.923475,261.423092 170.43598,259.910587 170.437888,258.044231 L170.437888,249.146923 C170.437252,247.279666 168.924375,245.765756 167.057119,245.763846 Z M169.014619,258.041923 C169.012397,259.122099 168.137294,259.997201 167.057119,259.999423 L158.159811,259.999423 C157.07941,259.997519 156.203957,259.122324 156.201734,258.041923 L156.201734,249.146923 C156.203957,248.066523 157.07941,247.191327 158.159811,247.189423 L167.057119,247.189423 C168.137294,247.191645 169.012397,248.066747 169.014619,249.146923 L169.014619,258.041923 Z" id="Shape"></path>
                    <path d="M162.608465,244.342308 C162.797379,244.342308 162.978486,244.266923 163.111906,244.133178 C163.245326,243.999434 163.320117,243.818144 163.319811,243.629231 L163.319811,242.029423 C163.321717,240.948572 164.197614,240.072934 165.278465,240.071346 L181.470965,240.071346 L181.470965,243.629231 C181.470965,244.022096 181.789445,244.340577 182.182311,244.340577 C182.575177,244.340577 182.893657,244.022096 182.893657,243.629231 L182.893657,240.069615 L199.086157,240.069615 C200.168809,240.069615 201.04674,240.946771 201.047696,242.029423 L201.047696,243.629231 C201.058663,244.014367 201.374038,244.32089 201.75933,244.32089 C202.144623,244.32089 202.459998,244.014367 202.470965,243.629231 L202.470965,242.029423 C202.469057,240.163067 200.956552,238.650562 199.090196,238.648654 L182.893657,238.648654 L182.893657,232.956154 L190.190003,232.956154 C192.05636,232.954246 193.568864,231.441741 193.570772,229.575385 L193.570772,220.675769 C193.568864,218.809413 192.05636,217.296908 190.190003,217.295 L174.174619,217.295 C172.308262,217.296908 170.795757,218.809413 170.793849,220.675769 L170.793849,229.573077 C170.795757,231.439433 172.308262,232.951938 174.174619,232.953846 L181.470965,232.953846 L181.470965,238.648654 L165.278465,238.648654 C163.412108,238.650562 161.899604,240.163067 161.897695,242.029423 L161.897695,243.629231 C161.897695,243.818045 161.972102,243.999247 162.105397,244.132975 C162.238692,244.266703 162.419651,244.342002 162.608465,244.342308 Z M172.217119,229.573077 L172.217119,220.675769 C172.21934,219.595593 173.094443,218.720491 174.174619,218.718269 L190.190003,218.718269 C191.270179,218.720491 192.145282,219.595593 192.147503,220.675769 L192.147503,229.573077 C192.145282,230.653253 191.270179,231.528355 190.190003,231.530577 L174.174619,231.530577 C173.094443,231.528355 172.21934,230.653253 172.217119,229.573077 Z" id="Shape"></path>
                </g>
            </g>
        </g>
    </g>
</svg>