<?xml version="1.0" encoding="UTF-8"?>
<svg width="160px" height="42px" viewBox="0 0 160 42" version="1.1" xmlns="http://www.w3.org/2000/svg" xmlns:xlink="http://www.w3.org/1999/xlink">
    <!-- Generator: Sketch 55.1 (78136) - https://sketchapp.com -->
    <title>Group 24</title>
    <desc>Created with Sketch.</desc>
    <g id="Page-1" stroke="none" stroke-width="1" fill="none" fill-rule="evenodd">
        <g id="Desktop-HD-Copy-11" transform="translate(-355.000000, -2408.000000)" fill-rule="nonzero">
            <g id="Group-4" transform="translate(0.000000, 495.000000)">
                <g id="Group-7" transform="translate(0.000000, 1410.000000)">
                    <g id="Group-10" transform="translate(354.000000, 503.000000)">
                        <g id="Group-17">
                            <g id="Group-23" transform="translate(0.956569, 0.296000)">
                                <g id="Group-24" transform="translate(0.000000, 0.000000)">
                                    <path d="M6.888,17.04 L8.95283847e-13,0.384 L1.68,0.384 L6.96,13.512 L12.264,0.384 L13.872,0.384 L6.984,17.04 L6.888,17.04 Z M16.7242201,16.704 L16.7242201,0.384 L18.3082201,0.384 L18.3082201,16.704 L16.7242201,16.704 Z M21.1604403,13.608 L22.4804403,12.912 C23.3444403,14.544 24.8324403,15.48 26.7524403,15.48 C28.9844403,15.48 30.3044403,14.376 30.3044403,12.672 C30.3044403,10.872 29.2004403,10.08 27.2324403,9.168 L25.9124403,8.544 C23.5604403,7.44 22.1204403,6.36 22.1204403,4.08 C22.1204403,1.752 23.9444403,0.192 26.3924403,0.192 C28.5044403,0.192 29.8964403,0.96 30.9044403,2.592 L29.7044403,3.36 C28.9844403,2.136 27.9284403,1.56 26.4164403,1.56 C24.7604403,1.56 23.6564403,2.592 23.6564403,4.032 C23.6564403,5.592 24.5444403,6.192 26.5364403,7.128 L27.8324403,7.752 C30.4484403,8.976 31.8644403,10.176 31.8644403,12.624 C31.8644403,15.312 29.8244403,16.896 26.7764403,16.896 C24.1124403,16.896 22.2164403,15.6 21.1604403,13.608 Z M40.6686604,16.896 C37.3806604,16.896 34.9086604,14.952 34.9086604,11.16 L34.9086604,0.384 L36.4686604,0.384 L36.4686604,11.04 C36.4686604,13.992 38.1246604,15.48 40.6686604,15.48 C43.2366604,15.48 44.8686604,13.992 44.8686604,11.04 L44.8686604,0.384 L46.4286604,0.384 L46.4286604,11.16 C46.4286604,14.952 43.9566604,16.896 40.6686604,16.896 Z M60.5608805,16.704 L58.9288805,12.672 L51.5368805,12.672 L49.9288805,16.704 L48.3448805,16.704 L55.2088805,4.36983782e-13 L55.3288805,4.36983782e-13 L62.2168805,16.704 L60.5608805,16.704 Z M55.2328805,3.528 L52.1128805,11.28 L58.3528805,11.28 L55.2328805,3.528 Z M64.9731006,16.704 L64.9731006,0.384 L66.5331006,0.384 L66.5331006,15.312 L74.1171006,15.312 L74.1171006,16.704 L64.9731006,16.704 Z M82.2455409,16.704 L82.2455409,0.384 L86.3255409,0.384 C91.7255409,0.384 94.9415409,3.72 94.9415409,8.544 C94.9415409,13.368 91.7495409,16.704 86.3255409,16.704 L82.2455409,16.704 Z M83.8055409,15.288 L86.1815409,15.288 C91.0055409,15.288 93.3095409,12.504 93.3095409,8.544 C93.3095409,4.584 91.0055409,1.8 86.1815409,1.8 L83.8055409,1.8 L83.8055409,15.288 Z M98.057761,16.704 L98.057761,0.384 L107.897761,0.384 L107.897761,1.776 L99.617761,1.776 L99.617761,7.8 L107.009761,7.8 L107.009761,9.168 L99.617761,9.168 L99.617761,15.312 L108.233761,15.312 L108.233761,16.704 L98.057761,16.704 Z M110.125981,13.608 L111.445981,12.912 C112.309981,14.544 113.797981,15.48 115.717981,15.48 C117.949981,15.48 119.269981,14.376 119.269981,12.672 C119.269981,10.872 118.165981,10.08 116.197981,9.168 L114.877981,8.544 C112.525981,7.44 111.085981,6.36 111.085981,4.08 C111.085981,1.752 112.909981,0.192 115.357981,0.192 C117.469981,0.192 118.861981,0.96 119.869981,2.592 L118.669981,3.36 C117.949981,2.136 116.893981,1.56 115.381981,1.56 C113.725981,1.56 112.621981,2.592 112.621981,4.032 C112.621981,5.592 113.509981,6.192 115.501981,7.128 L116.797981,7.752 C119.413981,8.976 120.829981,10.176 120.829981,12.624 C120.829981,15.312 118.789981,16.896 115.741981,16.896 C113.077981,16.896 111.181981,15.6 110.125981,13.608 Z M124.090201,16.704 L124.090201,0.384 L125.674201,0.384 L125.674201,16.704 L124.090201,16.704 Z M137.334421,16.896 C132.534421,16.896 128.814421,13.392 128.814421,8.544 C128.814421,3.72 132.510421,0.192 137.094421,0.192 C139.950421,0.192 141.846421,1.2 143.238421,2.736 L142.134421,3.768 C141.006421,2.52 139.566421,1.608 137.046421,1.608 C133.254421,1.608 130.446421,4.584 130.446421,8.544 C130.446421,12.504 133.302421,15.48 137.334421,15.48 C139.734421,15.48 141.246421,14.784 142.302421,13.896 L142.302421,10.152 L137.382421,10.152 L137.382421,8.76 L143.790421,8.76 L143.790421,14.616 C142.302421,15.936 140.406421,16.896 137.334421,16.896 Z M159.626642,17.04 L148.634642,3.864 L148.634642,16.704 L147.170642,16.704 L147.170642,0.048 L147.314642,0.048 L158.306642,13.224 L158.306642,0.384 L159.770642,0.384 L159.770642,17.04 L159.626642,17.04 Z" id="VISUALDESIGN" fill="#FF3B30"></path>
                                    <path d="M39.3623302,31.344 L38.0343302,36.256 C37.9063302,36.72 37.8423302,37.04 37.8423302,37.28 C37.8423302,37.536 37.9543302,37.696 38.2263302,37.696 C38.6263302,37.696 38.9783302,37.056 39.3463302,36.048 L40.0503302,36.256 C39.4103302,38.256 38.5943302,38.848 37.7623302,38.848 C37.0903302,38.848 36.5783302,38.4 36.5783302,37.536 C36.5783302,37.424 36.5783302,37.36 36.5943302,37.2 L36.4823302,37.152 C35.8903302,38.256 34.9623302,38.848 34.1143302,38.848 C32.8823302,38.848 32.0983302,37.776 32.0983302,36.368 C32.0983302,34.752 32.7383302,33.408 33.5863302,32.56 C34.3703302,31.776 35.3143302,31.248 36.1943302,31.248 C37.0423302,31.248 37.4903302,31.824 37.5863302,32.496 L37.8903302,31.344 L39.3623302,31.344 Z M34.7063302,37.712 C36.0823302,37.712 37.1703302,34.768 37.1703302,33.472 C37.1703302,32.624 36.8343302,32.144 36.2263302,32.144 C34.6583302,32.144 33.6663302,34.88 33.6663302,36.128 C33.6663302,37.12 34.0023302,37.712 34.7063302,37.712 Z M47.9332904,32.336 C46.5572904,32.336 45.3252904,34.896 45.3252904,36.384 C45.3252904,37.44 45.6772904,37.904 46.4292904,37.904 C48.0132904,37.904 48.8612904,35.056 48.8612904,33.808 C48.8612904,32.88 48.5892904,32.336 47.9332904,32.336 Z M47.4692904,27.712 L45.9332904,32.944 L46.0452904,32.992 C46.6372904,31.888 47.5652904,31.248 48.4132904,31.248 C49.6932904,31.248 50.4292904,32.416 50.4292904,33.824 C50.4292904,36.752 48.1092904,38.848 46.1412904,38.848 C44.5092904,38.848 43.7892904,37.856 43.7892904,36.496 C43.7892904,35.872 44.0132904,34.896 44.2372904,34.096 L45.6932904,28.864 L44.2372904,28.864 L44.5412904,27.712 L47.4692904,27.712 Z M51.8187705,38.704 L53.2107705,33.472 C53.4507705,32.56 53.4347705,32.256 53.0827705,32.256 C52.6667705,32.256 52.2347705,32.992 51.7547705,33.984 L51.0507705,33.664 C51.7067705,32.16 52.4587705,31.28 53.4347705,31.28 C54.1067705,31.28 54.5387705,31.76 54.5387705,32.752 C54.5387705,33.232 54.4267705,33.84 54.1707705,34.528 L54.3147705,34.576 C55.2427705,32.464 56.0267705,31.248 57.0667705,31.248 C57.6587705,31.248 58.1067705,31.648 58.1067705,32.32 C58.1067705,33.04 57.6427705,33.648 57.0827705,33.648 C56.5867705,33.648 56.2507705,33.328 56.2507705,32.736 C55.7067705,32.976 54.4747705,34.752 53.4027705,38.704 L51.8187705,38.704 Z M62.9202505,28.736 C62.9202505,29.328 62.4242505,30.032 61.6882505,30.032 C61.2242505,30.032 60.8562505,29.712 60.8562505,29.152 C60.8562505,28.544 61.3202505,27.84 62.0402505,27.84 C62.5682505,27.84 62.9202505,28.176 62.9202505,28.736 Z M62.0562505,32.944 C62.0562505,34.16 60.7762505,36.288 60.7762505,37.296 C60.7762505,37.568 60.8882505,37.696 61.1282505,37.696 C61.4642505,37.696 61.8322505,37.184 62.2802505,36.048 L62.9842505,36.256 C62.3602505,38.192 61.5122505,38.848 60.6322505,38.848 C59.8962505,38.848 59.3362505,38.352 59.3362505,37.408 C59.3362505,35.744 60.6642505,33.744 60.6642505,32.624 C60.6642505,32.352 60.5842505,32.256 60.4082505,32.256 C59.8962505,32.256 59.4802505,32.992 59.0002505,33.984 L58.2962505,33.664 C58.9522505,32.16 59.7522505,31.248 60.7282505,31.248 C61.5122505,31.248 62.0562505,31.856 62.0562505,32.944 Z M70.1657306,32.8 C70.1657306,34.192 68.6457306,35.472 65.3337306,35.744 C65.3177306,35.936 65.3017306,36.112 65.3017306,36.272 C65.3017306,37.52 65.9577306,37.952 66.7737306,37.952 C67.6057306,37.952 68.4377306,37.312 69.0617306,36.352 L69.7177306,36.736 C68.9337306,37.968 67.9737306,38.848 66.3097306,38.848 C64.8377306,38.848 63.7497306,37.712 63.7497306,36 C63.7497306,33.568 65.9257306,31.248 68.2617306,31.248 C69.4937306,31.248 70.1657306,31.888 70.1657306,32.8 Z M68.0057306,32.048 C66.8057306,32.048 65.8777306,33.616 65.4937306,35.024 C67.8457306,34.72 68.7897306,33.904 68.7897306,32.832 C68.7897306,32.416 68.5337306,32.048 68.0057306,32.048 Z M69.9392107,41.376 C69.0592107,41.376 68.6752107,40.912 68.6752107,40.384 C68.6752107,39.84 69.0912107,39.328 69.6672107,39.328 C70.2112107,39.328 70.4192107,39.728 70.4192107,40.032 C70.4192107,40.32 70.3392107,40.56 70.2112107,40.672 C70.7392107,40.672 70.9792107,40.432 71.4912107,38 L72.6752107,32.432 L71.1392107,32.432 L71.3632107,31.568 L72.8512107,31.568 C73.3952107,28.976 74.8352107,27.632 76.4992107,27.632 C77.7472107,27.632 78.2272107,28.336 78.2272107,28.96 C78.2272107,29.696 77.7472107,30.32 77.1392107,30.32 C76.6752107,30.32 76.3552107,30.032 76.3552107,29.52 C76.3552107,29.216 76.4992107,28.768 76.8032107,28.512 C76.7072107,28.448 76.5472107,28.4 76.3712107,28.4 C75.2192107,28.4 74.8032107,29.328 74.4352107,31.104 L74.3392107,31.568 L76.4192107,31.568 L76.1792107,32.432 L74.1632107,32.432 L73.0752107,37.552 C72.4672107,40.48 71.0912107,41.376 69.9392107,41.376 Z M81.6941709,37.712 C83.0701709,37.712 84.1741709,34.832 84.1741709,33.344 C84.1741709,32.56 83.9181709,32.144 83.2461709,32.144 C81.5981709,32.144 80.6541709,34.88 80.6541709,36.128 C80.6541709,37.12 80.9901709,37.712 81.6941709,37.712 Z M86.3341709,36.048 L87.0381709,36.256 C86.3981709,38.256 85.5821709,38.848 84.7501709,38.848 C84.0781709,38.848 83.5661709,38.384 83.5661709,37.52 C83.5661709,37.44 83.5661709,37.376 83.5821709,37.2 L83.4701709,37.152 C82.8781709,38.256 81.9501709,38.848 81.1021709,38.848 C79.8701709,38.848 79.0861709,37.776 79.0861709,36.368 C79.0861709,34.752 79.7261709,33.408 80.5741709,32.56 C81.3581709,31.776 82.3021709,31.248 83.1821709,31.248 C84.0141709,31.248 84.4301709,31.68 84.6061709,32.368 L85.5501709,28.864 L84.0941709,28.864 L84.3981709,27.712 L87.3261709,27.712 L85.0221709,36.256 C84.8941709,36.72 84.8301709,37.04 84.8301709,37.28 C84.8301709,37.536 84.9421709,37.696 85.2141709,37.696 C85.6141709,37.696 85.9661709,37.056 86.3341709,36.048 Z M92.155651,28.736 C92.155651,29.328 91.659651,30.032 90.923651,30.032 C90.459651,30.032 90.091651,29.712 90.091651,29.152 C90.091651,28.544 90.555651,27.84 91.275651,27.84 C91.803651,27.84 92.155651,28.176 92.155651,28.736 Z M91.291651,32.944 C91.291651,34.16 90.011651,36.288 90.011651,37.296 C90.011651,37.568 90.123651,37.696 90.363651,37.696 C90.699651,37.696 91.067651,37.184 91.515651,36.048 L92.219651,36.256 C91.595651,38.192 90.747651,38.848 89.867651,38.848 C89.131651,38.848 88.571651,38.352 88.571651,37.408 C88.571651,35.744 89.899651,33.744 89.899651,32.624 C89.899651,32.352 89.819651,32.256 89.643651,32.256 C89.131651,32.256 88.715651,32.992 88.235651,33.984 L87.531651,33.664 C88.187651,32.16 88.987651,31.248 89.963651,31.248 C90.747651,31.248 91.291651,31.856 91.291651,32.944 Z M98.3291311,36.352 C98.3291311,37.984 97.0011311,38.848 95.5131311,38.848 C94.2811311,38.848 92.6651311,38.304 92.6651311,37.04 C92.6651311,36.48 93.0171311,35.936 93.6251311,35.936 C94.1371311,35.936 94.4251311,36.336 94.4251311,36.736 C94.4251311,37.152 94.2171311,37.472 94.0411311,37.6 C94.3451311,37.904 94.9531311,38.08 95.5131311,38.08 C96.3291311,38.08 96.9051311,37.696 96.9051311,36.864 C96.9051311,36.256 96.2811311,35.952 95.4011311,35.568 C94.5531311,35.184 93.6571311,34.752 93.6571311,33.696 C93.6571311,32.016 95.2251311,31.248 96.4571311,31.248 C97.9611311,31.248 99.0011311,31.92 99.0011311,32.848 C99.0011311,33.44 98.6651311,33.968 98.0731311,33.968 C97.6251311,33.968 97.2891311,33.648 97.2891311,33.2 C97.2891311,32.896 97.4651311,32.528 97.7051311,32.352 C97.5451311,32.176 97.0011311,32 96.4731311,32 C95.7211311,32 95.0811311,32.368 95.0811311,33.136 C95.0811311,33.76 95.6891311,34.064 96.6011311,34.464 C97.4491311,34.848 98.3291311,35.264 98.3291311,36.352 Z M104.838611,32.336 C103.462611,32.336 102.230611,35.088 102.230611,36.416 C102.230611,37.248 102.582611,37.84 103.382611,37.84 C104.966611,37.84 105.766611,35.024 105.766611,33.776 C105.766611,32.848 105.494611,32.336 104.838611,32.336 Z M101.446611,33.728 C101.686611,32.848 101.638611,32.432 101.302611,32.432 C100.886611,32.432 100.614611,32.88 100.054611,33.984 L99.3506111,33.664 C100.118611,31.952 100.854611,31.28 101.782611,31.28 C102.422611,31.28 102.870611,31.744 102.870611,32.56 C102.870611,32.672 102.854611,32.832 102.838611,32.944 L102.950611,32.992 C103.542611,31.888 104.470611,31.248 105.318611,31.248 C106.550611,31.248 107.334611,32.352 107.334611,33.792 C107.334611,36.56 105.366611,38.72 103.574611,38.72 C102.742611,38.72 102.102611,38.288 101.830611,37.76 L101.206611,40.112 L102.790611,40.112 L102.502611,41.168 L98.2946111,41.168 L98.5826111,40.112 L99.7346111,40.112 L101.446611,33.728 Z M108.452091,37.408 C108.452091,36.832 108.676091,35.92 108.980091,34.784 L110.596091,28.864 L109.140091,28.864 L109.444091,27.712 L112.372091,27.712 L110.068091,36.256 C109.940091,36.72 109.876091,37.072 109.876091,37.296 C109.876091,37.6 110.052091,37.696 110.228091,37.696 C110.676091,37.696 111.012091,37.056 111.380091,36.048 L112.084091,36.256 C111.444091,38.256 110.660091,38.848 109.812091,38.848 C108.916091,38.848 108.452091,38.304 108.452091,37.408 Z M120.129571,31.344 L118.801571,36.256 C118.673571,36.72 118.609571,37.04 118.609571,37.28 C118.609571,37.536 118.721571,37.696 118.993571,37.696 C119.393571,37.696 119.745571,37.056 120.113571,36.048 L120.817571,36.256 C120.177571,38.256 119.361571,38.848 118.529571,38.848 C117.857571,38.848 117.345571,38.4 117.345571,37.536 C117.345571,37.424 117.345571,37.36 117.361571,37.2 L117.249571,37.152 C116.657571,38.256 115.729571,38.848 114.881571,38.848 C113.649571,38.848 112.865571,37.776 112.865571,36.368 C112.865571,34.752 113.505571,33.408 114.353571,32.56 C115.137571,31.776 116.081571,31.248 116.961571,31.248 C117.809571,31.248 118.257571,31.824 118.353571,32.496 L118.657571,31.344 L120.129571,31.344 Z M115.473571,37.712 C116.849571,37.712 117.937571,34.768 117.937571,33.472 C117.937571,32.624 117.601571,32.144 116.993571,32.144 C115.425571,32.144 114.433571,34.88 114.433571,36.128 C114.433571,37.12 114.769571,37.712 115.473571,37.712 Z M123.631051,31.264 C124.367051,31.264 124.815051,31.76 124.815051,32.624 C124.815051,34.192 123.887051,35.552 123.887051,36.544 C123.887051,36.992 124.047051,37.152 124.431051,37.152 C125.407051,37.152 126.623051,35.904 127.807051,31.344 L129.311051,31.344 L127.919051,37.216 C127.231051,40.144 125.791051,41.376 123.727051,41.376 C122.463051,41.376 121.487051,41.008 121.487051,40 C121.487051,39.552 121.855051,38.896 122.511051,38.896 C123.071051,38.896 123.359051,39.296 123.311051,39.808 C123.295051,39.984 123.183051,40.256 123.039051,40.416 C123.263051,40.48 123.535051,40.528 123.807051,40.528 C125.071051,40.528 126.031051,39.408 126.623051,36.928 L126.847051,35.984 L126.751051,35.936 C125.823051,37.632 124.799051,38.368 123.887051,38.368 C122.879051,38.368 122.383051,37.616 122.383051,36.688 C122.383051,35.472 123.375051,33.696 123.375051,32.768 C123.375051,32.56 123.295051,32.416 123.151051,32.416 C122.735051,32.416 122.303051,33.12 121.903051,33.984 L121.199051,33.664 C121.855051,32.16 122.703051,31.264 123.631051,31.264 Z" id="abriefdisplay" fill="#8E8E93"></path>
                                </g>
                            </g>
                        </g>
                    </g>
                </g>
            </g>
        </g>
    </g>
</svg>